<?xml version="1.0" encoding="UTF-8"?>
<svg version="1.1" xmlns="http://www.w3.org/2000/svg" width="356" height="356">
<path d="M0 0 C117.48 0 234.96 0 356 0 C356 117.48 356 234.96 356 356 C238.52 356 121.04 356 0 356 C0 238.52 0 121.04 0 0 Z " fill="#FDFDFD" transform="translate(0,0)"/>
<path d="M0 0 C1.69029849 1.30324463 3.36078346 2.6330601 5 4 C5.99 4.33 6.98 4.66 8 5 C10.0078125 7.109375 10.0078125 7.109375 12.125 9.75 C12.82882813 10.61109375 13.53265625 11.4721875 14.2578125 12.359375 C18.53206313 18.83783559 17.44603708 27.51294896 17 35 C15.23213835 43.47533674 10.21089721 49.39958922 3.4453125 54.45703125 C-0.17813597 56.74339251 -3.86493163 57.97216274 -8 59 C-8.61955566 59.17273438 -9.23911133 59.34546875 -9.87744141 59.5234375 C-11.99298573 59.99842514 -13.83992056 60.12918122 -16.00390625 60.1328125 C-16.74447266 60.13410156 -17.48503906 60.13539062 -18.24804688 60.13671875 C-19.01181641 60.13285156 -19.77558594 60.12898438 -20.5625 60.125 C-21.33013672 60.12886719 -22.09777344 60.13273437 -22.88867188 60.13671875 C-26.17927139 60.130981 -28.85758907 60.04747031 -32 59 C-32 58.34 -32 57.68 -32 57 C-32.73089844 57.06574219 -33.46179688 57.13148437 -34.21484375 57.19921875 C-40.12231672 56.77666458 -44.74301112 51.37962194 -48.5625 47.1875 C-50 45 -50 45 -50 43 C-50.66 43 -51.32 43 -52 43 C-55.73385733 35.22113056 -56.45246326 26.80120742 -54.34375 18.37890625 C-50.92995574 9.8885645 -44.3519055 2.7626332 -36 -1 C-23.5633498 -5.31973284 -12.17076465 -5.22987765 0 0 Z " fill="#070707" transform="translate(198,7)"/>
<path d="M0 0 C0 0.66 0 1.32 0 2 C0.556875 2.061875 1.11375 2.12375 1.6875 2.1875 C6.58238724 3.90732524 10.07360036 8.86267637 13 13 C16.5658621 21.07010896 16.70572591 29.69069973 14 38 C9.8548442 48.06680695 2.47823313 53.23243736 -7 58 C-18.95865886 60.87834741 -31.19272708 59.87190207 -42 54 C-48.34228976 49.78922113 -54.09731303 43.44283789 -56.64453125 36.15625 C-58.31652557 26.01404268 -57.24599528 18.17140807 -51.9375 9.5625 C-51.298125 8.716875 -50.65875 7.87125 -50 7 C-49.34 7 -48.68 7 -48 7 C-47.67 6.01 -47.34 5.02 -47 4 C-44.4375 2.8125 -44.4375 2.8125 -42 2 C-42 1.34 -42 0.68 -42 0 C-40.02 -0.33 -38.04 -0.66 -36 -1 C-36 -1.66 -36 -2.32 -36 -3 C-22.70793766 -5.80687529 -12.79876934 -4.37477807 0 0 Z " fill="#060606" transform="translate(200,294)"/>
<path d="M0 0 C0.85062012 0.01015137 1.70124023 0.02030273 2.57763672 0.03076172 C12.75751311 0.28209264 20.99420896 2.59008308 28.8125 9.375 C36.98854038 18.20815645 39.46200443 24.18047892 39.2265625 36.05078125 C38.78794806 43.32894097 34.98771644 47.86513487 30.375 53.1875 C21.23425411 60.99057576 11.64547904 64.87074961 -0.5703125 64.64453125 C-10.77519233 63.59358094 -19.04099802 59.70816435 -26.1875 52.375 C-31.30762497 45.92654073 -33.47321391 39.51782515 -33.375 31.25 C-33.36855469 30.05117187 -33.36210938 28.85234375 -33.35546875 27.6171875 C-33.22011095 25.00446722 -32.95878695 22.85545882 -32.1875 20.375 C-31.5275 20.375 -30.8675 20.375 -30.1875 20.375 C-30.08566406 19.63378906 -29.98382813 18.89257812 -29.87890625 18.12890625 C-28.57594311 12.9391378 -24.60200934 8.89034423 -20.12109375 6.078125 C-18.82378218 5.43808514 -17.51089436 4.82789594 -16.1796875 4.26171875 C-14.07242778 3.4073438 -14.07242778 3.4073438 -12.01953125 1.79296875 C-7.99874635 -0.22019666 -4.43608506 -0.07539351 0 0 Z " fill="#070707" transform="translate(36.1875,147.625)"/>
<path d="M0 0 C0.19335938 1.30195312 0.38671875 2.60390625 0.5859375 3.9453125 C0.84868168 5.67191712 1.11171795 7.39847731 1.375 9.125 C1.50132812 9.9809375 1.62765625 10.836875 1.7578125 11.71875 C2.46749703 16.33169948 3.34473737 20.60995565 5 25 C3.80375 25.515625 2.6075 26.03125 1.375 26.5625 C-8.3151003 30.89634014 -17.60199846 35.30614122 -26.109375 41.71484375 C-28 43 -28 43 -30 43 C-30 43.66 -30 44.32 -30 45 C-31.68249918 46.17774943 -33.36693685 47.35285603 -35.0625 48.51171875 C-37.63577039 50.48836395 -39.54691038 52.78898068 -41.5859375 55.296875 C-43.56899032 57.68530326 -45.80629554 59.80629554 -48 62 C-48.66 62.99 -49.32 63.98 -50 65 C-50.66 65 -51.32 65 -52 65 C-52.38865234 66.0828125 -52.38865234 66.0828125 -52.78515625 67.1875 C-54.05071961 70.11742161 -55.56420902 72.42170704 -57.4375 75 C-61.13108059 80.10559736 -63.99108416 84.79339638 -66.109375 90.75390625 C-67.12257776 93.30913251 -68.35075017 95.6900111 -69.625 98.125 C-71.49374715 101.76148095 -72.67386198 104.86891836 -73 109 C-78.76471999 109.10481309 -84.2852729 108.73291127 -90 108 C-90.77472656 107.90460938 -91.54945312 107.80921875 -92.34765625 107.7109375 C-94.23230746 107.47826451 -96.11623622 107.23975175 -98 107 C-98.27009699 101.69934666 -97.51845661 97.95725729 -95.5 93.0625 C-94.80390625 91.34740234 -94.80390625 91.34740234 -94.09375 89.59765625 C-93.55234375 88.31181641 -93.55234375 88.31181641 -93 87 C-92.34 87 -91.68 87 -91 87 C-90.91234375 86.17242187 -90.8246875 85.34484375 -90.734375 84.4921875 C-89.8488427 80.2811988 -88.22149959 76.92236172 -86.25 73.125 C-85.89019043 72.42117187 -85.53038086 71.71734375 -85.15966797 70.9921875 C-82.6671168 66.16573252 -80.14438453 61.4391311 -77 57 C-76.34 57 -75.68 57 -75 57 C-74.64421875 55.94232422 -74.64421875 55.94232422 -74.28125 54.86328125 C-72.77497827 51.49713132 -70.84415483 49.03016827 -68.5 46.1875 C-67.30890625 44.72376953 -67.30890625 44.72376953 -66.09375 43.23046875 C-65.4028125 42.49441406 -64.711875 41.75835937 -64 41 C-63.34 41 -62.68 41 -62 41 C-61.78601563 40.45085937 -61.57203125 39.90171875 -61.3515625 39.3359375 C-59.53789178 36.20132742 -57.04912008 34.00917012 -54.375 31.625 C-53.5718335 30.90026489 -53.5718335 30.90026489 -52.75244141 30.16088867 C-41.3783887 20 -41.3783887 20 -38 20 C-38 19.34 -38 18.68 -38 18 C-28.32410368 11.0082809 -12.11937189 0 0 0 Z " fill="#050505" transform="translate(132,31)"/>
<path d="M0 0 C0.21914063 0.65484375 0.43828125 1.3096875 0.6640625 1.984375 C4.45365427 12.89100496 9.70321223 22.74425913 15.6796875 32.6015625 C17 35 17 35 17 37 C17.99 37.33 18.98 37.66 20 38 C21.99396257 40.66083969 24 43.61242325 24 47 C24.58910156 47.25007813 25.17820313 47.50015625 25.78515625 47.7578125 C28.29309705 49.16438247 29.62424578 50.65554334 31.4375 52.875 C34.06684996 56.00301978 36.7855935 58.4674373 40 61 C40 61.66 40 62.32 40 63 C40.53753906 63.25523437 41.07507813 63.51046875 41.62890625 63.7734375 C44.49239533 65.25471521 47.19793952 66.92505023 49.9375 68.625 C50.50235107 68.97256348 51.06720215 69.32012695 51.64916992 69.67822266 C54.60657207 71.5003653 57.54536683 73.34597465 60.4609375 75.234375 C66.26751833 78.94300705 71.14985183 81.92546695 78 83 C77.45802007 85.89055964 76.80901825 88.66843611 76 91.5 C74.52470586 97.22502202 74.34064631 103.11936903 74 109 C69.92722012 108.43267729 66.41537885 107.52536141 62.625 105.9375 C61.75101562 105.57527344 60.87703125 105.21304688 59.9765625 104.83984375 C58.99816406 104.42412109 58.99816406 104.42412109 58 104 C58 103.34 58 102.68 58 102 C57.21625 101.95875 56.4325 101.9175 55.625 101.875 C40.76968207 98.2892336 25.40622436 83.66597411 15 73 C14.16082031 72.14664063 13.32164063 71.29328125 12.45703125 70.4140625 C5.7440574 63.33420529 0.29450998 55.89853713 -4.92919922 47.66992188 C-6.36290957 45.4340398 -7.86971945 43.25062711 -9.375 41.0625 C-15.12660525 32.35476244 -18.49811212 22.77331006 -22 13 C-22.38929687 11.93007812 -22.77859375 10.86015625 -23.1796875 9.7578125 C-24 7 -24 7 -24 3 C-20.75073335 2.49515526 -17.50047901 1.99697406 -14.25 1.5 C-13.32960938 1.35691406 -12.40921875 1.21382812 -11.4609375 1.06640625 C-10.12675781 0.86337891 -10.12675781 0.86337891 -8.765625 0.65625 C-7.94868164 0.53056641 -7.13173828 0.40488281 -6.29003906 0.27539062 C-4 0 -4 0 0 0 Z " fill="#050505" transform="translate(58,219)"/>
<path d="M0 0 C5.27883504 0.49322449 8.91625184 1.73823225 13.5 4.375 C18.50439376 7.22116404 18.50439376 7.22116404 23.75 9.5625 C27.49334323 11.21820951 30.64353084 13.34737657 33.984375 15.6953125 C36.06280985 17.15984418 36.06280985 17.15984418 39 18 C39 18.66 39 19.32 39 20 C39.928125 20.4640625 39.928125 20.4640625 40.875 20.9375 C42.25 21.625 43.625 22.3125 45 23 C45 23.66 45 24.32 45 25 C45.58523438 25.268125 46.17046875 25.53625 46.7734375 25.8125 C65.74631609 35.93136858 81.83229241 60.60169447 90 80 C90.556875 81.0725 91.11375 82.145 91.6875 83.25 C93 86 93 86 93 89 C91.95199219 89.39832031 91.95199219 89.39832031 90.8828125 89.8046875 C89.97273438 90.15789062 89.06265625 90.51109375 88.125 90.875 C87.22007812 91.22304687 86.31515625 91.57109375 85.3828125 91.9296875 C82.87782993 92.88530895 82.87782993 92.88530895 81 95 C77.19953261 96.52018696 74.09053942 97.24061997 70 97 C69.443125 95.88625 68.88625 94.7725 68.3125 93.625 C67.76529297 92.53638672 67.76529297 92.53638672 67.20703125 91.42578125 C66.37948069 89.76264566 65.56500449 88.09295888 64.76171875 86.41796875 C62.53750046 81.82492355 60.32088842 77.91390421 57 74 C56.67 73.01 56.34 72.02 56 71 C55.071875 70.319375 55.071875 70.319375 54.125 69.625 C51.60039842 67.69442232 50.57029293 65.74801262 49 63 C44.57988045 57.10650726 39.28470996 52.24181691 33.6875 47.5 C33.1200708 47.01732666 32.5526416 46.53465332 31.96801758 46.03735352 C28.83399556 43.41104574 25.70564712 41.04210587 22.1875 38.9375 C21.135625 38.298125 20.08375 37.65875 19 37 C19 36.34 19 35.68 19 35 C17.9790625 34.85884766 17.9790625 34.85884766 16.9375 34.71484375 C13.33762417 33.83881014 10.25822209 32.2716742 7 30.5625 C3.06300111 28.52249523 -0.84451274 26.56617796 -5 25 C-4.34789168 21.51372862 -3.49503963 18.15303554 -2.5 14.75 C-1.12632739 9.81147944 -0.41834226 5.10377553 0 0 Z " fill="#060606" transform="translate(227,31)"/>
<path d="M0 0 C2.87348533 1.4830892 4.21271197 3.28961881 5.9375 6 C6.3515625 8.43359375 6.3515625 8.43359375 5.9375 11 C3.8203125 13.01953125 3.8203125 13.01953125 1.0625 14.8125 C0.15757812 15.41707031 -0.74734375 16.02164063 -1.6796875 16.64453125 C-4.0625 18 -4.0625 18 -6.0625 18 C-6.0625 18.66 -6.0625 19.32 -6.0625 20 C-8.03524001 21.40910001 -10.01526166 22.7075848 -12.0625 24 C-13.33108364 24.85500151 -14.59661983 25.71453864 -15.859375 26.578125 C-17.17704971 27.46879975 -18.49475844 28.35942417 -19.8125 29.25 C-20.48410156 29.70890625 -21.15570313 30.1678125 -21.84765625 30.640625 C-26.83672805 34 -26.83672805 34 -29.0625 34 C-29.0625 34.66 -29.0625 35.32 -29.0625 36 C-31.1796875 37.5078125 -31.1796875 37.5078125 -33.9375 39.125 C-34.84242188 39.66382813 -35.74734375 40.20265625 -36.6796875 40.7578125 C-39.0625 42 -39.0625 42 -41.0625 42 C-41.0625 42.66 -41.0625 43.32 -41.0625 44 C-43.32369304 45.64916346 -45.5835718 47.1811318 -47.9375 48.6875 C-49.32224312 49.59018237 -50.70635677 50.4938311 -52.08984375 51.3984375 C-52.77030762 51.84155273 -53.45077148 52.28466797 -54.15185547 52.74121094 C-56.63880979 54.37968991 -59.07232796 56.0876751 -61.5 57.8125 C-73.1215936 66 -73.1215936 66 -76.0625 66 C-76.0625 66.66 -76.0625 67.32 -76.0625 68 C-81.47426471 72 -81.47426471 72 -84.0625 72 C-84.0625 72.66 -84.0625 73.32 -84.0625 74 C-85.0525 74 -86.0425 74 -87.0625 74 C-87.35125 74.78375 -87.64 75.5675 -87.9375 76.375 C-89.0625 79 -89.0625 79 -91.0625 81 C-92.0525 81 -93.0425 81 -94.0625 81 C-94.0625 81.66 -94.0625 82.32 -94.0625 83 C-97.48041075 83.41851968 -100.05063876 83.62620097 -103.05078125 81.76953125 C-106.03679286 79.26573269 -107.80836344 77.76240969 -109.0625 74 C-110.66562401 72.85367983 -110.66562401 72.85367983 -112.66015625 71.95703125 C-113.73813477 71.43012695 -113.73813477 71.43012695 -114.83789062 70.89257812 C-115.59263672 70.53615234 -116.34738281 70.17972656 -117.125 69.8125 C-118.26291992 69.26045898 -118.26291992 69.26045898 -119.42382812 68.69726562 C-121.29903819 67.78914503 -123.18022733 66.89338985 -125.0625 66 C-125.0625 65.34 -125.0625 64.68 -125.0625 64 C-125.76375 63.9175 -126.465 63.835 -127.1875 63.75 C-130.73520457 62.82451185 -133.03694336 61.05737852 -136.0625 59 C-137.75374003 58.29797584 -139.44538267 57.59672264 -141.14453125 56.9140625 C-143.45268988 55.81404392 -145.45787061 54.45072926 -147.5625 53 C-151.26554146 50.45845215 -154.88460749 48.68581627 -159.0625 47 C-162.41584526 45.37264127 -165.74081421 43.69091852 -169.0625 42 C-169.0625 41.34 -169.0625 40.68 -169.0625 40 C-169.990625 39.71125 -170.91875 39.4225 -171.875 39.125 C-175.0625 38 -175.0625 38 -178.0625 36 C-176.3125 28.375 -176.3125 28.375 -174.0625 25 C-168.17503727 25.45757482 -164.32082255 27.21141406 -159.3125 30.25 C-153.05265541 33.91883482 -146.75758276 37.17728502 -140.0625 40 C-140.0625 40.66 -140.0625 41.32 -140.0625 42 C-138.94875 42.185625 -138.94875 42.185625 -137.8125 42.375 C-135.26108515 42.95486701 -133.3357427 43.73708739 -131.0625 45 C-131.0625 45.66 -131.0625 46.32 -131.0625 47 C-130.299375 47.20625 -129.53625 47.4125 -128.75 47.625 C-125.54095586 48.82159273 -122.79991792 50.1641233 -119.8125 51.8125 C-118.8534375 52.33714844 -117.894375 52.86179688 -116.90625 53.40234375 C-115.13418897 54.397911 -113.37986876 55.42664453 -111.65625 56.50390625 C-104.28334837 60.8170537 -97.37027217 60.49846633 -89.0625 60 C-89.0625 59.34 -89.0625 58.68 -89.0625 58 C-85.12421464 55.68336156 -81.37014815 53.56641751 -77.0625 52 C-77.0625 51.34 -77.0625 50.68 -77.0625 50 C-74.9453125 48.4921875 -74.9453125 48.4921875 -72.1875 46.875 C-71.28257812 46.33617187 -70.37765625 45.79734375 -69.4453125 45.2421875 C-67.0625 44 -67.0625 44 -65.0625 44 C-65.0625 43.34 -65.0625 42.68 -65.0625 42 C-63.0078125 40.51953125 -63.0078125 40.51953125 -60.1875 38.8125 C-55.32765814 35.81989363 -50.67179391 32.64356597 -46.05859375 29.28515625 C-44.0625 28 -44.0625 28 -42.0625 28 C-42.0625 27.34 -42.0625 26.68 -42.0625 26 C-41.0725 26 -40.0825 26 -39.0625 26 C-39.0625 25.34 -39.0625 24.68 -39.0625 24 C-36.90234375 22.44921875 -36.90234375 22.44921875 -34 20.6875 C-30.65786247 18.62386951 -27.36119979 16.56518233 -24.1875 14.25 C-21.53012747 12.33669178 -18.87180994 10.6722083 -16.0625 9 C-14.55869738 8.00572757 -13.0590718 7.0051233 -11.5625 6 C-10.78519531 5.48308594 -10.00789062 4.96617188 -9.20703125 4.43359375 C-7.54579843 3.32307928 -5.89556043 2.19610829 -4.25 1.0625 C-2.0625 0 -2.0625 0 0 0 Z " fill="#0A0A0A" transform="translate(277.0625,108)"/>
<path d="M0 0 C0.86794042 2.73550877 1.54036827 5.32812179 2.125 8.125 C2.29386719 8.87265625 2.46273438 9.6203125 2.63671875 10.390625 C4.80996133 20.21299697 5.23682305 29.79135829 5.25 39.8125 C5.25200409 40.54766846 5.25400818 41.28283691 5.256073 42.0402832 C5.26354167 53.20366517 4.84619328 64.14612304 2 75 C1 76 1 76 -2.00390625 76.25 C-6.65007347 76.18350745 -10.63711651 74.63613562 -14.9375 73 C-15.71673828 72.71382813 -16.49597656 72.42765625 -17.29882812 72.1328125 C-19.20294317 71.43191126 -21.1020195 70.71734696 -23 70 C-22.67 67.36 -22.34 64.72 -22 62 C-21.34 62 -20.68 62 -20 62 C-20.09414713 56.46789944 -20.20037145 50.9362053 -20.31738281 45.40454102 C-20.35546632 43.52602341 -20.39035366 41.647438 -20.421875 39.76879883 C-20.46797713 37.05525614 -20.52589285 34.34217208 -20.5859375 31.62890625 C-20.59748871 30.80040665 -20.60903992 29.97190704 -20.62094116 29.11830139 C-20.74267958 24.21590824 -21.35147674 19.73305741 -22.56484985 14.97813416 C-23.15425615 12.29877225 -23.13998624 9.72973171 -23 7 C-6.17647059 -2.05882353 -6.17647059 -2.05882353 0 0 Z " fill="#080808" transform="translate(327,138)"/>
<path d="M0 0 C8.26218593 1.59445693 16.06288986 4.26018069 24 7 C22.1717974 13.91956066 19.73536971 20.03570768 16.3125 26.3125 C15.87550781 27.12630127 15.43851562 27.94010254 14.98828125 28.77856445 C6.95394544 43.60208919 6.95394544 43.60208919 3 49 C2.34 49 1.68 49 1 49 C0.75507813 49.55171875 0.51015625 50.1034375 0.2578125 50.671875 C-1.25738114 53.47639491 -3.11084126 55.78103123 -5.125 58.25 C-5.84945313 59.14203125 -6.57390625 60.0340625 -7.3203125 60.953125 C-7.87460937 61.62859375 -8.42890625 62.3040625 -9 63 C-12.43158495 62.40662177 -12.84262067 62.22131468 -15 59.1875 C-15.66 58.135625 -16.32 57.08375 -17 56 C-18.31200404 54.64567325 -19.64631404 53.31266518 -21 52 C-26 46.59885387 -26 46.59885387 -26 43 C-24.70486492 41.62953268 -23.36370398 40.30225458 -22 39 C-20.61243253 37.21294093 -19.2592904 35.39874447 -17.9375 33.5625 C-17.26589844 32.63566406 -16.59429687 31.70882813 -15.90234375 30.75390625 C-13.96558525 28.03545464 -13.96558525 28.03545464 -12.37890625 25.15234375 C-11.92386719 24.44207031 -11.46882813 23.73179687 -11 23 C-10.34 23 -9.68 23 -9 23 C-8.34 20.36 -7.68 17.72 -7 15 C-6.34 15 -5.68 15 -5 15 C-4.9175 14.195625 -4.835 13.39125 -4.75 12.5625 C-3.79803325 8.04065795 -1.98419821 4.15297299 0 0 Z " fill="#060606" transform="translate(299,225)"/>
<path d="M0 0 C1.375 2.0625 1.375 2.0625 3 5 C5.5997801 8.29943764 8.31021279 11.38096019 11.4375 14.1875 C13 16 13 16 13 17.8125 C11.45351899 21.19542722 8.56291503 22.80105294 5.5625 24.8125 C4.27732538 25.69658788 2.99216922 26.58070259 1.70703125 27.46484375 C1.07361816 27.89522949 0.44020508 28.32561523 -0.21240234 28.76904297 C-2.60082005 30.4137305 -4.91734325 32.15247994 -7.25 33.875 C-11.91149042 37.12737976 -16.67864293 39.08365348 -22 41 C-24.6273015 42.08007131 -27.24958811 43.1715777 -29.87109375 44.265625 C-32 45 -32 45 -35 45 C-35.10957031 43.94941406 -35.21914062 42.89882813 -35.33203125 41.81640625 C-36.1772613 34.18207033 -37.17097428 27.20115637 -40 20 C-36.04 19.505 -36.04 19.505 -32 19 C-32 18.34 -32 17.68 -32 17 C-31.360625 16.87625 -30.72125 16.7525 -30.0625 16.625 C-29.381875 16.41875 -28.70125 16.2125 -28 16 C-27.67 15.34 -27.34 14.68 -27 14 C-25.15933933 13.07966967 -23.31609638 12.16418165 -21.4609375 11.2734375 C-16.04128761 8.46898375 -10.63296657 5.17269234 -5.921875 1.28515625 C-4 0 -4 0 0 0 Z " fill="#060606" transform="translate(262,283)"/>
<path d="M0 0 C0.845625 0.556875 1.69125 1.11375 2.5625 1.6875 C3.34625 2.203125 4.13 2.71875 4.9375 3.25 C5.47375 3.724375 6.01 4.19875 6.5625 4.6875 C6.5625 5.3475 6.5625 6.0075 6.5625 6.6875 C7.2225 6.6875 7.8825 6.6875 8.5625 6.6875 C10.99601553 12.12712295 11.06231574 16.99521688 9.5625 22.6875 C7.39011454 26.88367126 4.68039344 29.83577166 0.9375 32.6875 C-4.91319024 34.42103785 -11.09960471 34.98113406 -16.88671875 32.73828125 C-20.95425551 30.35490019 -23.30293353 27.95663294 -25.4375 23.6875 C-26.0975 23.3575 -26.7575 23.0275 -27.4375 22.6875 C-27.49173638 20.77114783 -27.53039963 18.85435075 -27.5625 16.9375 C-27.58570313 15.87015625 -27.60890625 14.8028125 -27.6328125 13.703125 C-27.44237687 10.76279894 -26.96420104 9.16388122 -25.4375 6.6875 C-24.7775 6.6875 -24.1175 6.6875 -23.4375 6.6875 C-23.1590625 5.82125 -23.1590625 5.82125 -22.875 4.9375 C-17.8927897 -2.86074221 -7.89385888 -3.01401885 0 0 Z " fill="#F7F7F7" transform="translate(188.4375,305.3125)"/>
<path d="M0 0 C0 0.66 0 1.32 0 2 C0.721875 2.061875 1.44375 2.12375 2.1875 2.1875 C5.97111788 3.28054516 7.51434621 4.97690756 10 8 C12.51639203 13.03278405 12.28988278 17.64559452 11 23 C9.91932393 25.75034622 8.77512429 27.56554383 7 30 C4.75 30.9375 4.75 30.9375 3 31 C3 31.66 3 32.32 3 33 C-3.66736502 35.66694601 -10.3713193 36.10365641 -17.03515625 33.29296875 C-21.93386076 30.06936797 -25.24056695 25.06074533 -26.64453125 19.40234375 C-27.02958506 13.60862708 -25.35216429 10.10526943 -21.703125 5.69140625 C-15.00776717 -0.95788261 -8.97177464 -1.31207771 0 0 Z " fill="#F6F6F6" transform="translate(187,18)"/>
<path d="M0 0 C4.34685758 3.72587792 4.47662921 7.69210669 5 13.1875 C4.83809484 17.82878132 3.45863163 21.56627889 0.625 25.25 C-5.24787731 30.1119722 -10.76842254 31.77459155 -18.375 31.25 C-24.20828885 29.30557038 -27.82290628 25.10354955 -31.375 20.25 C-33.11473368 15.03079895 -32.84391181 10.70609457 -31.1875 5.5625 C-28.68857905 0.99550654 -26.27704308 -1.88167598 -21.5 -4.0625 C-13.10566919 -5.90925278 -7.34853262 -3.81035025 0 0 Z " fill="#FAFAFA" transform="translate(53.375,166.75)"/>
<path d="M0 0 C0.99 0.33 1.98 0.66 3 1 C2.98839844 2.09699219 2.97679687 3.19398438 2.96484375 4.32421875 C2.95546036 5.77864412 2.94636075 7.23307135 2.9375 8.6875 C2.92912109 9.40873047 2.92074219 10.12996094 2.91210938 10.87304688 C2.89456368 14.71555382 3.06475779 18.26639526 4 22 C2.35 21.67 0.7 21.34 -1 21 C-1.02888146 17.68751813 -1.04675799 14.37506833 -1.0625 11.0625 C-1.07087891 10.11697266 -1.07925781 9.17144531 -1.08789062 8.19726562 C-1.09111328 7.29814453 -1.09433594 6.39902344 -1.09765625 5.47265625 C-1.10289307 4.64000244 -1.10812988 3.80734863 -1.11352539 2.94946289 C-1 1 -1 1 0 0 Z " fill="#EDEDED" transform="translate(1,169)"/>
<path d="M0 0 C6.27 0.33 12.54 0.66 19 1 C18.01 2.485 18.01 2.485 17 4 C15.12060547 4.34057617 15.12060547 4.34057617 12.8671875 4.29296875 C12.06152344 4.28330078 11.25585938 4.27363281 10.42578125 4.26367188 C9.58402344 4.23853516 8.74226562 4.21339844 7.875 4.1875 C7.02550781 4.17396484 6.17601562 4.16042969 5.30078125 4.14648438 C3.20025163 4.11108219 1.10004707 4.05727401 -1 4 C-1.33 3.34 -1.66 2.68 -2 2 C-1.34 2 -0.68 2 0 2 C0 1.34 0 0.68 0 0 Z " fill="#E4E4E4" transform="translate(168,352)"/>
<path d="M0 0 C1.5703125 2.1484375 1.5703125 2.1484375 1.3203125 4.3984375 C1.0728125 4.9759375 0.8253125 5.5534375 0.5703125 6.1484375 C-0.0484375 5.3440625 -0.6671875 4.5396875 -1.3046875 3.7109375 C-4.92411999 -0.00291497 -9.50500631 0.25362487 -14.4296875 0.1484375 C-14.4296875 0.8084375 -14.4296875 1.4684375 -14.4296875 2.1484375 C-15.0896875 2.1484375 -15.7496875 2.1484375 -16.4296875 2.1484375 C-17.0896875 3.7984375 -17.7496875 5.4484375 -18.4296875 7.1484375 C-19.0896875 6.8184375 -19.7496875 6.4884375 -20.4296875 6.1484375 C-18.90762741 3.51942462 -17.58602786 1.30477786 -15.4296875 -0.8515625 C-12.53125 -1.40625 -12.53125 -1.40625 -9.0546875 -1.7265625 C-7.34152344 -1.90832031 -7.34152344 -1.90832031 -5.59375 -2.09375 C-2.4296875 -1.8515625 -2.4296875 -1.8515625 0 0 Z " fill="#404040" transform="translate(188.4296875,169.8515625)"/>
<path d="M0 0 C-0.99 0.66 -1.98 1.32 -3 2 C-3.33 2.66 -3.66 3.32 -4 4 C-4.66 3.67 -5.32 3.34 -6 3 C-9.19799885 3.8114324 -9.19799885 3.8114324 -11.5 6.5625 C-14 9 -14 9 -17 9 C-7.62142857 -2.93131868 -7.62142857 -2.93131868 0 0 Z " fill="#C7C7C7" transform="translate(39,163)"/>
<path d="M0 0 C0.33 0.99 0.66 1.98 1 3 C-2.3 6.3 -5.6 9.6 -9 13 C-9.66 12.67 -10.32 12.34 -11 12 C-9.625 10 -9.625 10 -8 8 C-7.34 8 -6.68 8 -6 8 C-5.7525 7.4225 -5.505 6.845 -5.25 6.25 C-3.83316683 3.6997003 -2.12372463 1.98214299 0 0 Z " fill="#373737" transform="translate(76,64)"/>
<path d="M0 0 C0.75 1.75 0.75 1.75 1 4 C-0.8125 6.25 -0.8125 6.25 -3 8 C-3.66 8 -4.32 8 -5 8 C-5.66 9.32 -6.32 10.64 -7 12 C-8.32 11.67 -9.64 11.34 -11 11 C-5.25 6 -5.25 6 -3 6 C-2.690625 5.195625 -2.38125 4.39125 -2.0625 3.5625 C-1 1 -1 1 0 0 Z " fill="#C4C4C4" transform="translate(211,50)"/>
<path d="M0 0 C0.99 0 1.98 0 3 0 C3 0.99 3 1.98 3 3 C6.96 3 10.92 3 15 3 C15 3.33 15 3.66 15 4 C14.14535156 4.04898438 13.29070313 4.09796875 12.41015625 4.1484375 C11.30542969 4.22320312 10.20070313 4.29796875 9.0625 4.375 C7.96035156 4.44460937 6.85820313 4.51421875 5.72265625 4.5859375 C4.37494141 4.79089844 4.37494141 4.79089844 3 5 C2.67 5.66 2.34 6.32 2 7 C0 6 0 6 -0.6875 4.0625 C-1 2 -1 2 0 0 Z " fill="#E7E7E7" transform="translate(31,135)"/>
<path d="M0 0 C0.99 0.33 1.98 0.66 3 1 C2.67 4.96 2.34 8.92 2 13 C1.67 13 1.34 13 1 13 C0.67 11.02 0.34 9.04 0 7 C-0.33 7 -0.66 7 -1 7 C-1.04254356 5.00045254 -1.04080783 2.99958364 -1 1 C-0.67 0.67 -0.34 0.34 0 0 Z " fill="#E4E4E4" transform="translate(1,169)"/>
<path d="M0 0 C0.33 0.99 0.66 1.98 1 3 C-1.17105124 5.87517597 -3.4542872 8.4542872 -6 11 C-6.33 10.34 -6.66 9.68 -7 9 C-7.66 8.67 -8.32 8.34 -9 8 C-8.43410156 7.59007812 -7.86820312 7.18015625 -7.28515625 6.7578125 C-6.18494141 5.94957031 -6.18494141 5.94957031 -5.0625 5.125 C-4.33160156 4.59132813 -3.60070312 4.05765625 -2.84765625 3.5078125 C-0.88901765 2.11987896 -0.88901765 2.11987896 0 0 Z " fill="#BEBEBE" transform="translate(275,300)"/>
<path d="M0 0 C2.31 0.33 4.62 0.66 7 1 C7 1.66 7 2.32 7 3 C6.34 3 5.68 3 5 3 C4.67 3.66 4.34 4.32 4 5 C2 3.625 2 3.625 0 2 C0 1.34 0 0.68 0 0 Z " fill="#DFDFDF" transform="translate(206,299)"/>
<path d="M0 0 C1.32 1.32 2.64 2.64 4 4 C3.67 4.66 3.34 5.32 3 6 C1.68 6 0.36 6 -1 6 C-0.67 4.02 -0.34 2.04 0 0 Z " fill="#EAEAEA" transform="translate(146,336)"/>
<path d="M0 0 C0.66 0.33 1.32 0.66 2 1 C1.2884375 1.928125 1.2884375 1.928125 0.5625 2.875 C-1.02417441 4.90705546 -1.02417441 4.90705546 -2 7 C-2.66 7 -3.32 7 -4 7 C-4 6.34 -4 5.68 -4 5 C-4.66 4.67 -5.32 4.34 -6 4 C-4.02 2.68 -2.04 1.36 0 0 Z " fill="#CCCCCC" transform="translate(263,310)"/>
<path d="M0 0 C0.99 0.33 1.98 0.66 3 1 C2.67 1.99 2.34 2.98 2 4 C1.34 4 0.68 4 0 4 C-0.33 4.99 -0.66 5.98 -1 7 C-1 6.01 -1 5.02 -1 4 C-1.66 3.67 -2.32 3.34 -3 3 C-2.01 2.01 -1.02 1.02 0 0 Z " fill="#E3E3E3" transform="translate(273,264)"/>
<path d="M0 0 C0.66 0.33 1.32 0.66 2 1 C-4.28571429 6.57142857 -4.28571429 6.57142857 -8 7 C-8 6.34 -8 5.68 -8 5 C-6.3203125 3.67578125 -6.3203125 3.67578125 -4.125 2.3125 C-3.40570313 1.85488281 -2.68640625 1.39726562 -1.9453125 0.92578125 C-1.30335938 0.62027344 -0.66140625 0.31476563 0 0 Z " fill="#B9B9B9" transform="translate(244,145)"/>
<path d="M0 0 C0 0.99 0 1.98 0 3 C-2.5 5.1875 -2.5 5.1875 -5 7 C-5.99 6.34 -6.98 5.68 -8 5 C-4.04 2.525 -4.04 2.525 0 0 Z " fill="#2E2E2E" transform="translate(194,333)"/>
<path d="M0 0 C-0.66 1.65 -1.32 3.3 -2 5 C-3.65 5 -5.3 5 -7 5 C-7 4.34 -7 3.68 -7 3 C-2.61538462 0 -2.61538462 0 0 0 Z " fill="#B4B4B4" transform="translate(208,171)"/>
<path d="M0 0 C2.88575819 0.39803561 3.82189513 0.79009069 5.75 3.0625 C6.1625 3.701875 6.575 4.34125 7 5 C6.67 5.66 6.34 6.32 6 7 C4 5.625 4 5.625 2 4 C2 3.34 2 2.68 2 2 C1.34 2 0.68 2 0 2 C0 1.34 0 0.68 0 0 Z " fill="#DADADA" transform="translate(282,105)"/>
</svg>
