<svg xmlns="http://www.w3.org/2000/svg" viewBox="0 0 184.524 47.759">
  <g fill="none">
    <path fill="#75767A" d="M184.436 43.611c0 2.795-1.985 4.114-4.092 4.147a5.696 5.696 0 0 1-4.169-1.685l1.11-1.309c.753.732 2.006 1.187 3.07 1.165 1.031-.022 2.03-.577 2.03-2.04a5.235 5.235 0 0 1-1.708.299c-3.249 0-4.99-2.495-4.968-4.99.034-2.417 1.785-4.856 4.968-4.856 1.131 0 2.384.11 3.748.62v8.672l.011-.023Zm-6.698-4.39c0 1.496.998 3.137 2.95 3.137.543 0 1.164-.088 1.73-.266 0-1.984.022-3.825.022-5.832a11.947 11.947 0 0 0-1.74-.155c-1.93 0-2.95 1.608-2.95 3.115m-12.563-4.246c1.386-.488 2.583-.632 3.881-.632 2.661 0 4.834 1.164 4.834 4.28v5.455h-2.029v-5.455c0-1.919-1.442-2.517-3.005-2.517-.543 0-1.12.155-1.63.277v7.695h-2.062v-9.103h.011Zm-4.258-4.037h2.085v2.285h-2.085v-2.285Zm2.062 13.129h-2.04v-9.547h2.04v9.547Zm-7.517-9.547.133 1.01c.598-1.087 1.62-1.198 2.251-1.22.654 0 1.497.188 2.173.62l-.865 1.653c-1.44-.899-3.426-.333-3.426 1.519v5.965h-2.029v-9.547h1.763Zm-8.516 9.756c-2.849 0-4.967-2.195-4.967-4.956 0-2.761 2.118-4.934 4.967-4.934 2.85 0 4.957 2.15 4.957 4.934 0 2.783-2.085 4.956-4.957 4.956Zm0-1.84c1.442 0 2.905-1.01 2.905-3.116 0-2.107-1.463-3.071-2.905-3.071-1.44 0-2.927.975-2.927 3.07 0 2.097 1.52 3.117 2.927 3.117Zm-11.066 1.84c-2.849 0-4.967-2.195-4.967-4.956 0-2.761 2.118-4.934 4.967-4.934 2.85 0 4.957 2.15 4.957 4.934 0 2.783-2.085 4.956-4.957 4.956Zm0-1.84c1.442 0 2.905-1.01 2.905-3.116 0-2.107-1.463-3.071-2.905-3.071-1.44 0-2.927.975-2.927 3.07 0 2.097 1.52 3.117 2.927 3.117Zm-67.215 1.631h-4.202V30.838h4.18c8.86-.055 8.948 13.24.022 13.228Zm.022-11.254h-2.084v9.303h2.04c6.12.11 6.02-9.303.033-9.303m15.446 8.35 1.497.92c-1.11 1.485-2.55 2.14-4.125 2.14-3.249 0-4.879-2.473-4.857-4.935 0-2.45 1.686-4.934 4.835-4.945 2.76-.022 4.668 2.062 4.668 4.723 0 .278-.022.655-.078 1.087h-7.396c.222 1.186 1.22 2.251 2.817 2.251.843 0 1.84-.144 2.628-1.23m.033-2.706c-.277-1.409-1.22-2.273-2.661-2.307-1.619.023-2.517.943-2.772 2.307h5.444-.011Zm10.046 2.882c0 2.174-2.007 2.928-3.548 2.928-1.298 0-2.495-.544-3.36-1.763l1.275-1.231c.521.676 1.275 1.109 2.03 1.164.709.033 1.618-.222 1.618-1.031 0-.92-.976-1.198-1.619-1.309-1.574-.266-3.016-1.03-3.038-2.827 0-1.874 1.685-2.905 3.448-2.905.976 0 2.04.3 2.961 1.253l-1.131 1.253c-.599-.466-1.142-.71-1.796-.71-.621 0-1.52.266-1.497 1.12.022.82.898.943 1.497 1.065 1.619.299 3.149 1.142 3.149 3.004m1.508-10.423h2.084v2.285H95.7v-2.285Zm2.062 13.129h-2.04v-9.547h2.04v9.547Zm10.323-.455c0 2.795-1.985 4.114-4.092 4.147a5.696 5.696 0 0 1-4.169-1.685l1.11-1.309c.753.732 2.006 1.187 3.07 1.165 1.031-.022 2.03-.577 2.03-2.04a5.235 5.235 0 0 1-1.708.299c-3.249 0-4.99-2.495-4.967-4.99.033-2.417 1.784-4.856 4.967-4.856 1.131 0 2.384.11 3.747.62v8.672l.012-.023Zm-6.698-4.39c0 1.496.998 3.137 2.95 3.137.543 0 1.164-.088 1.73-.266 0-1.984.022-3.825.022-5.832a11.947 11.947 0 0 0-1.74-.155c-1.93 0-2.95 1.608-2.95 3.115m9.18-4.246c1.386-.488 2.584-.632 3.881-.632 2.661 0 4.835 1.164 4.835 4.28v5.455h-2.03v-5.455c0-1.919-1.44-2.517-3.004-2.517-.544 0-1.12.155-1.63.277v7.695h-2.063v-9.103h.011Zm15.002-2.253c-1.164-.077-1.685.278-1.685 1.131v.71h1.685v1.74h-1.685v7.762h-2.04v-7.761h-1.03v-1.74h1.03v-.71c0-2.174 1.52-3.127 3.737-2.906v1.785l-.012-.01Zm4.857 9.525c-1.142.1-1.408-.333-1.408-1.109v-10.2h-2.04v10.2c0 2.196 1.197 3.194 3.448 2.95v-1.841ZM56.624 5.224s-.155.155-.255.366c-.055.21-.1 1.042-.255 2.229-.155 1.241-1.918 1.607-2.284 1.552-.366-.056-1.552-.1-1.918.21-.41.366-.887.056-1.197-.31-.31-.366-.987-.366-1.608-.055-.621.31-1.397 2.694-1.397 2.694s-.521 1.663-.776 2.694c-.211.832-.621 2.384-.876 3.792-.211 1.398-.366 2.44-1.087 3.526-.732 1.087-1.663 1.863-1.918 2.595-.255.732-.577 3.836-.732 4.668-.155.887-.621 6.542-.676 7.84-.056 1.297 0 3.06.255 3.791.31.732.576 1.198.776 1.398.155.21.255.365.576.31.31 0 .577 0 .776.155.256.155.621.466.677.776 0 0 .1.41 0 .522-.056.1-.31.1-.41.1 0 0 0 .21-.211.254-.21 0-2.44-.155-2.44-.155s-.465-.21-.52-.466c-.056-.255-.056-.831-.311-1.397-.255-.565-.62-1.042-.62-1.042s-.522.1-.622-.21c-.1-.311-.155-1.032-.1-1.453 0-.41.1-2.44-.055-4.513-.1-2.03-.366-8.05-.466-8.615-.1-.621-.21-1.043-.366-1.353 0 0-.987 2.34-1.142 3.992-.155 1.607-.676 9.546-.62 10.223.055.72.576 2.029.775 2.384.211.366.466.565.466.565s.366-.1.577-.055c.21 0 .565.421.732.676.155.266.21.466.155.676 0 .211-.1.366-.41.366h-2.595s-.31-.155-.466-.31c-.155-.155-.31-.466-.366-.832-.055-.366-.155-2.073-.366-2.594 0 0-.465.1-.676-.1-.21-.21-.255-.776-.155-1.297.155-.466.41-2.074.31-5.19-.1-3.115-.41-7.739-.62-8.249 0 0-1.919-.1-4.258-1.198-1.763-.831-5.345-2.184-6.487-2.805-.421-.1-.421.366-.466.621 0 .056-.155.887-.31 1.353-.466 1.552-1.564 4.357-2.44 5.71-.887 1.353-2.439 4.202-2.905 6.487-.465 2.284.156 4.047.422 4.934.31.887.62 1.397.62 1.397s.1.31.256.31c.155 0 .62-.1.831-.155.31 0 .777.21 1.043.41.21.211.41.566.465.832 0 0 0 .577-.155.577-.366.055-.155.255-.521.21h-2.805s-.31.056-.466-.31c-.155-.366-.1-.876-.366-1.608-.421-1.198-2.229-5.655-2.65-6.487 0 0-.255-.72-.1-1.086.1-.155 2.384-5.866 2.384-5.866.255-.831.255-2.129.1-3.16a16.403 16.403 0 0 1-1.042 1.708c-.156.255-1.708 2.073-2.284 2.75l-1.087 1.086c-.591.592-1.198 1.334-1.818 2.229-.677 1.042-1.353 2.34-1.608 3.116-.255.931-.832 2.694-.832 3.836s.056 1.453.31 1.918c0 0 .1.156.466.366.366.211.577.31.677.577.1.31 0 .565-.056.62-.055.1-.155.056-.255.1-.055.056-.155.156-.255.156-.366 0-2.805-.056-2.805-.056s-.621-.1-.732-.576C5 43.068 4.9 42.025 5 41.348c.155-.676.62-2.073 1.042-4.257.41-2.184.676-3.216.676-3.216s.156-.776.566-1.197c.421-.466 2.384-4.78 2.96-6.753.521-1.818 1.142-4.047 1.298-4.723-.31.41-2.595 3.016-6.387 4.513L2.814 26.8l-1.862.776s-.621.255-.887-.255c-.256-.52.31-.776.576-.876.1-.055.931-.42 2.184-.931 1.553-.676 3.016-1.397 4.469-2.495 1.297-.931 3.116-3.171 3.116-3.171 1.297-1.974 1.663-3.27 2.018-4.103.52-1.197 1.197-4.413 4.202-5.4.31-.1 2.073-.831 3.792-.831 2.805.055 9.447 1.974 14.115 1.719 2.384-.156 3.792-.832 3.892-.887.577-.255 1.353-1.198 2.129-2.495.776-1.198 1.818-2.44 1.974-2.595-.056-.255-.1-.52-.156-.776-.155-.466.056-.832.366-1.242.31-.366 3.06-2.129 3.792-2.539.1-.1.156-.21.255-.31.732-.677 1.863-.31 2.861-.1.987.21 1.663.776 2.184 1.197.522.366.621.732.832 1.142.155.366 2.34 1.043 3.37 1.353.256.1.466.1.522.1.31.1.366.31.31.576 0 .31-.21.522-.21.522"/>
    <path fill="#A5123A" d="M93.348 15.97v9.091h-2.55l-.466-1.541c-1.275 1.42-2.54 1.774-4.258 1.774-8.116 0-8.06-10.3 1.098-10.3.942 0 2.273.354 3.016.886 0-2.683-1.686-3.548-3.57-3.515-1.597.034-2.861.444-4.136 1.21l-1.264-1.92c4.191-3.448 12.13-2.572 12.13 4.314ZM67.978 4.247v9.059l8.15-9.059h4.014l-8.116 9.18 8.327 11.632H76.45l-6.642-9.425-1.83 1.83v7.595h-3.392V4.248h3.393Zm19.216 13.429c-2.45.033-3.98 1.097-3.98 2.395 0 1.419 1.153 2.273 3.636 2.273 1.154 0 2.573-.41 3.371-1.276h-.01V18.53c-.943-.654-2.008-.853-3.017-.853Zm11.332-7.652.21 1.596c.943-1.718 2.54-1.885 3.55-1.918 1.03 0 2.36.3 3.425.976l-1.364 2.594c-2.273-1.419-5.4-.532-5.4 2.395v9.392h-3.193V10.025h2.772Zm8.815.71c2.184-.765 4.07-1.008 6.11-1.008 4.19 0 7.617 1.83 7.617 6.73v8.593h-3.194v-8.593c0-3.016-2.273-3.958-4.723-3.958-.854 0-1.774.232-2.573.443V25.05h-3.248V10.736h.011Zm29.594-6.342v20.013c-2.096.743-4.103.91-5.91.91-5.045 0-7.85-3.837-7.828-7.707 0-5.078 4.79-9.48 10.511-7.384V4.393h3.227Zm-3.216 17.896v-9.16c-3.725-1.684-7.296.8-7.318 4.492-.033 2.306 1.597 4.934 4.635 4.934.92-.034 1.83-.089 2.683-.266Zm16.854-1.808 2.362 1.453c-1.74 2.328-4.014 3.37-6.498 3.37-5.112 0-7.673-3.902-7.65-7.76 0-3.87 2.66-7.762 7.617-7.796 4.346-.033 7.351 3.25 7.351 7.44a13.4 13.4 0 0 1-.122 1.708h-11.63c.354 1.863 1.917 3.548 4.423 3.548 1.33 0 2.894-.233 4.136-1.951m.055-4.247c-.443-2.218-1.918-3.57-4.19-3.626-2.54.033-3.959 1.475-4.37 3.626h8.56Zm15.157 8.815-.465-1.541c-1.275 1.42-2.539 1.774-4.258 1.774-8.116 0-8.06-10.3 1.098-10.3.942 0 2.273.354 3.004.886 0-2.683-1.685-3.548-3.57-3.515-1.597.034-2.86.444-4.136 1.21l-1.264-1.92c4.192-3.448 12.131-2.572 12.131 4.314v9.092h-2.54Zm-.587-3.992V18.53c-.943-.654-2.007-.853-3.016-.853-2.45.033-3.992 1.097-3.992 2.395 0 1.419 1.153 2.273 3.637 2.273 1.153 0 2.572-.41 3.371-1.276Zm5.61-10.333c2.185-.766 4.07-1.01 6.11-1.01 4.191 0 7.617 1.83 7.617 6.731v8.593h-3.193v-8.593c0-3.016-2.273-3.958-4.724-3.958-.853 0-1.774.232-2.572.443V25.05h-3.249V10.736h.011Z"/>
  </g>
</svg>
