<?xml version="1.0" encoding="utf-8"?>
<!-- Generator: Adobe Illustrator 26.1.0, SVG Export Plug-In . SVG Version: 6.00 Build 0)  -->
<svg version="1.1" id="Layer_1" xmlns="http://www.w3.org/2000/svg" xmlns:xlink="http://www.w3.org/1999/xlink" x="0px" y="0px"
	 width="181px" height="24px" viewBox="0 0 181 24" style="enable-background:new 0 0 181 24;" xml:space="preserve">
<g>
	<path d="M1.8,0.2H0.5C0.2,0.2,0,0.5,0,0.7v17.8C0,18.8,0.2,19,0.5,19h1.3c0.3,0,0.5-0.3,0.5-0.5V0.7C2.2,0.4,2,0.2,1.8,0.2z"/>
	<path d="M7.8,5.3H6.6c-0.3,0-0.5,0.2-0.5,0.5v12.8c0,0.3,0.2,0.5,0.5,0.5h1.2c0.3,0,0.5-0.2,0.5-0.5V5.8C8.3,5.5,8.1,5.3,7.8,5.3z"
		/>
	<path d="M7.9,0.1H6.6c-0.3,0-0.5,0.2-0.5,0.5v2c0,0.3,0.2,0.5,0.5,0.5h1.3c0.3,0,0.5-0.2,0.5-0.5v-2C8.4,0.3,8.2,0.1,7.9,0.1z"/>
	<path d="M18.8,0.2C18.4,0.1,18,0,17.4,0c-2.2,0-3.5,0.8-3.5,3.5v1.8h-2.4c-0.3,0-0.5,0.2-0.5,0.4v0.7c0,0.3,0.2,0.4,0.5,0.5
		l2.4,0.3v11.4c0,0.2,0.2,0.5,0.5,0.5h1.2c0.3,0,0.5-0.3,0.5-0.5V7.1h2.6c0.3,0,0.5-0.2,0.5-0.4v-1c0-0.2-0.2-0.4-0.5-0.4h-2.6V3.5
		c0-1.4,0.4-1.7,1.5-1.7h1.2c0.3,0,0.5-0.1,0.5-0.4V0.6C19.2,0.3,19,0.2,18.8,0.2z"/>
	<path d="M26.7,5.1c-3.6,0-5.6,2.3-5.6,5.9v2.3c0,4.7,2.8,6,5.7,6c1.7,0,3.1-0.1,4.5-0.4c0.4-0.1,0.5-0.2,0.5-0.6v-0.9
		c0-0.3-0.2-0.3-0.4-0.3c-0.1,0-0.1,0-0.1,0c-1.2,0.2-3,0.3-4.5,0.3c-2.3,0-3.5-1.1-3.5-4.1v-0.4h8.4c0.3,0,0.5-0.2,0.5-0.6V11
		C32.2,7.4,30.3,5.1,26.7,5.1z M29.9,11.2h-6.6V11c0-2.7,1.2-3.9,3.4-3.9c2.2,0,3.3,1.1,3.3,3.9V11.2z"/>
	<path d="M41.1,11.8l-2.5-1.5c-1.2-0.7-1.7-1.2-1.7-1.9c0-1.3,0.9-1.5,2.3-1.5c1.4,0,3,0.1,3.9,0.2c0,0,0.1,0,0.1,0
		c0.3,0,0.4-0.1,0.4-0.4V5.9c0-0.3-0.2-0.4-0.5-0.5c-1.2-0.2-2.5-0.3-3.9-0.3c-2.6,0-4.5,0.7-4.5,3.3c0,1.6,1,2.7,2.6,3.6l2.5,1.5
		c1.4,0.8,1.9,1.3,1.9,2.1c0,1.4-0.9,1.8-2.5,1.8c-0.9,0-2.7-0.1-3.9-0.3c0,0-0.1,0-0.1,0c-0.2,0-0.4,0.1-0.4,0.4v0.9
		c0,0.3,0.2,0.4,0.5,0.5c1.2,0.3,3,0.4,4,0.4c2.8,0,4.7-1.1,4.7-3.6C43.9,14.1,43.2,13,41.1,11.8z"/>
	<path d="M53.6,17.4h-1.4c-1,0-1.4-0.2-1.4-1.6V7.1h2.7c0.3,0,0.5-0.2,0.5-0.5V5.8c0-0.3-0.2-0.5-0.5-0.5h-2.7V2.6
		c0-0.3-0.2-0.4-0.4-0.4c0,0,0,0-0.1,0l-1.3,0.2c-0.3,0-0.4,0.3-0.4,0.5v2.5h-2.4c-0.3,0-0.5,0.2-0.5,0.4v0.7c0,0.3,0.2,0.4,0.5,0.5
		l2.4,0.3v8.7c0,2.8,1.1,3.4,3.4,3.4c0.5,0,1.1-0.1,1.6-0.1c0.3,0,0.5-0.2,0.5-0.4v-0.9C54.1,17.5,53.9,17.4,53.6,17.4z"/>
	<path d="M66.7,5.3h-1.4c-0.2,0-0.4,0.2-0.5,0.4l-3.1,11.4h-0.4c-0.2,0-0.4,0-0.5-0.6L58,5.7c0-0.2-0.2-0.4-0.4-0.4h-1.4
		c-0.3,0-0.5,0.2-0.5,0.4c0,0.1,0,0.1,0,0.2l3.3,11.4c0.4,1.6,1.1,1.7,1.8,1.7h0.4l-0.3,1c-0.4,1.8-1.1,2.1-2.5,2.1
		c-0.6,0-1.7-0.1-2.2-0.1c0,0-0.1,0-0.1,0c-0.3,0-0.5,0.1-0.5,0.4v0.9c0,0.2,0.2,0.3,0.5,0.4c0.5,0.1,1.4,0.2,2.1,0.2
		c2.9,0,3.8-1,4.6-3.7l4.1-14.4c0,0,0-0.1,0-0.2C67.1,5.5,67,5.3,66.7,5.3z"/>
	<path d="M71.8,0.2h-1.3c-0.3,0-0.5,0.2-0.5,0.5v17.8c0,0.3,0.2,0.5,0.5,0.5h1.3c0.3,0,0.5-0.3,0.5-0.5V0.7
		C72.2,0.4,72,0.2,71.8,0.2z"/>
	<path d="M81,5.1c-3.6,0-5.6,2.3-5.6,5.9v2.3c0,4.7,2.8,6,5.7,6c1.7,0,3.1-0.1,4.5-0.4c0.4-0.1,0.5-0.2,0.5-0.6v-0.9
		c0-0.3-0.2-0.3-0.4-0.3c0,0-0.1,0-0.1,0c-1.2,0.2-3,0.3-4.5,0.3c-2.3,0-3.5-1.1-3.5-4.1v-0.4H86c0.3,0,0.5-0.2,0.5-0.6V11
		C86.5,7.4,84.6,5.1,81,5.1z M84.3,11.2h-6.6V11C77.6,8.3,78.8,7,81,7c2.2,0,3.3,1.1,3.3,3.9V11.2z"/>
	<path d="M106.4,5.3c-0.8-0.1-2.5-0.1-3.6-0.1c-2.6,0-3.9,1-3.9,3.4v10.1c0,0.2,0.2,0.4,0.4,0.4h0.9c0.2,0,0.4-0.2,0.4-0.4v-6.1h5.7
		c0.2,0,0.4-0.2,0.4-0.4v-0.7c0-0.2-0.2-0.4-0.4-0.4h-5.7V8.6c0-1.4,0.3-1.9,2.3-1.9h3.6c0.1,0,0.2-0.1,0.2-0.2V5.5
		C106.6,5.4,106.5,5.3,106.4,5.3z"/>
	<path d="M120.3,17.7h-3.6c-2,0-2.3-0.5-2.3-1.9V5.7c0-0.2-0.2-0.4-0.4-0.4h-0.9c-0.2,0-0.4,0.2-0.4,0.4v10.1c0,3.1,2,3.4,3.9,3.4
		c1.7,0,3.1-0.1,3.6-0.2c0.1,0,0.2-0.1,0.2-0.3v-0.9C120.5,17.8,120.4,17.7,120.3,17.7z"/>
	<path d="M130.7,5.2c-2.9,0-5,1.7-5,5.8v2.4c0,4.1,2.1,5.8,5,5.8c2.9,0,5-1.7,5-5.8V11C135.7,6.9,133.6,5.2,130.7,5.2z M134,13.4
		c0,3.1-1.3,4.3-3.3,4.3c-2,0-3.3-1.2-3.3-4.3V11c0-3.1,1.3-4.3,3.3-4.3c2,0,3.3,1.2,3.3,4.3V13.4z"/>
	<path d="M146.6,5.2c-2.9,0-5,1.7-5,5.8v2.4c0,4.1,2.1,5.8,5,5.8c2.9,0,5-1.7,5-5.8V11C151.6,6.9,149.5,5.2,146.6,5.2z M149.9,13.4
		c0,3.1-1.3,4.3-3.3,4.3c-2,0-3.3-1.2-3.3-4.3V11c0-3.1,1.3-4.3,3.3-4.3c2,0,3.3,1.2,3.3,4.3V13.4z"/>
	<path d="M163.9,13c1.7-0.4,2.9-1.7,2.9-3.7V9.1c0-3-2.3-4-5.2-4c-1.1,0-2.5,0.1-3.3,0.1c-0.3,0-0.4,0.1-0.4,0.4v13
		c0,0.2,0.1,0.4,0.3,0.4h1c0.2,0,0.3-0.2,0.3-0.4v-5.4c1,0,1.4,0.1,2,0.1c0.1,0,0.2,0,0.3,0c0.1,0,0.1,0,0.2,0l3.3,5.5
		c0.1,0.2,0.3,0.2,0.5,0.2h1.2c0.1,0,0.2-0.1,0.2-0.2c0-0.1,0-0.1-0.1-0.2L163.9,13z M161.6,11.8c-0.4,0-1.2,0-2,0V6.7
		c0.4-0.1,1.5-0.1,2-0.1c2.3,0,3.5,0.6,3.5,2.5v0.1C165.1,11.3,163.9,11.8,161.6,11.8z"/>
	<path d="M178.1,11.7l-1.7-1c-1.4-0.9-2-1.4-2-2.2c0-1.4,0.8-1.8,2.7-1.8c1.1,0,2.4,0.1,3.2,0.1c0,0,0,0,0,0c0.2,0,0.3-0.1,0.3-0.3
		V5.7c0-0.2-0.1-0.3-0.3-0.3c-0.7-0.1-2.1-0.2-3.2-0.2c-2.8,0-4.4,1-4.4,3.3c0,1.5,0.9,2.4,2.6,3.5L177,13c1.7,1,2.2,1.6,2.2,2.5
		c0,1.3-0.6,2.2-2.8,2.2c-0.9,0-2.2,0-3.1-0.1c0,0,0,0-0.1,0c-0.2,0-0.3,0.1-0.3,0.3v0.7c0,0.2,0,0.3,0.4,0.3
		c0.8,0.1,1.8,0.3,3.1,0.3c3.7,0,4.6-1.9,4.6-3.7C181,14,180.2,13,178.1,11.7z"/>
</g>
</svg>
