<svg xmlns="http://www.w3.org/2000/svg" width="1529.333" height="378.667" class="c-hdr__logo-img c-hdr__logo-img@desktop" data-webid="logo-desktop" version="1.0" viewBox="0 0 1147 284"><path d="M616 32c0 17.6-.4 32-.8 32s-2.7-2.7-5.1-6.1c-5-7.1-13.7-13.2-21.2-14.8-12.1-2.6-27.5-.6-38.1 5.1-7.2 3.8-17.2 14.2-21.5 22.4-6.1 11.5-7.8 19.8-7.8 38.9 0 19.6 1.1 25 7.6 38.4 6.9 14 18.6 24 32.4 27.6 7.5 1.9 22.6 1.9 29.1 0 7.4-2.2 14.2-7.2 19.3-14.2 2.5-3.5 5.1-6.3 5.8-6.3 1 0 1.3 2.6 1.3 10v10h19V0h-20v32zm-22.7 30.8c14.8 6.6 23 23.2 23 46.7 0 30.6-14.3 49.5-37.3 49.5-22.5 0-37.9-20-38-49.3 0-24.9 10.6-43.3 27.8-48.3 6.5-1.9 18.7-1.2 24.5 1.4zM797 87.5V175h20V0h-20v87.5zM98.5 41.2c-14.3 2.3-26.1 4.2-26.2 4.2-.3.3 8.5 56.7 8.9 57.1.5.6 55.7-8 56.4-8.8.4-.4-1.2-12.9-3.5-27.9-2.3-15-4.1-27.6-4.1-28.1 0-1.2-4.1-.7-31.5 3.5zM236.5 44c-8.3 2.8-14.9 7.9-18.6 14.5-1.7 3-3.5 5.5-4 5.5s-.9-4.5-.9-10V44h-19v131h20v-43.4c0-40.5.1-43.8 2-49.8 6-19.6 29-28 44.4-16.2 2.5 1.9 5.4 5.3 6.7 8.1l2.4 4.8.3 48.2.3 48.3h19.8l.3-46.8c.3-46.7.3-46.7 2.7-51.9 2.8-6.2 9.2-12.5 14.7-14.4 2.1-.7 7.3-1.4 11.4-1.4 13.6 0 22.9 6.6 25.6 18.3 1 4.3 1.4 16.5 1.4 50.9V175h20v-46.8c0-27.8-.4-49.3-1.1-53.2-2.2-14-9.7-24.2-21.7-29.8-5.1-2.4-6.8-2.7-17.2-2.7-8.6 0-12.8.5-16.7 1.8-7.2 2.5-16.3 9.5-19.9 15.1-1.6 2.5-3.1 4.6-3.4 4.6-.3 0-1.4-1.6-2.5-3.7-3.1-5.8-10.1-12.2-16.2-15-7.9-3.6-22.1-4.2-30.8-1.3zM433.5 43c-11.4 2.3-23.3 9.3-30.7 18-4.9 5.6-11.2 17.9-13.4 26-2.6 9.2-2.6 35.8-.1 45 6 22.3 23 39.8 42.5 43.9 7.6 1.6 23.8 1.4 30.7-.4 14.9-3.9 28.1-15 35.2-29.5 5.6-11.5 7.7-21.5 7.6-36.5-.1-15.3-2.1-24.6-7.7-36C487.5 53 469 41.9 445.5 42.1c-4.4.1-9.8.5-12 .9zm25.7 19.1c9.3 3 18.3 13.1 22.5 25.2 3.8 10.6 4.4 29.2 1.4 40.1-2.8 10.2-5.3 14.9-11.3 21.2-7.3 7.8-12.8 9.9-25.8 9.9-9.5 0-11.1-.3-16.1-2.8-11-5.3-18.2-16.5-21.5-32.7-2.8-14.3-.3-33.5 5.9-44 5-8.6 14-15.9 22.4-18 4.6-1.1 17.5-.5 22.5 1.1zM884.5 43c-21.6 4.6-36.9 19.9-43.7 43.7-3 10.3-3.3 35.1-.5 45.3 5.9 22.2 21.9 38.8 41.8 43.5 8.2 1.9 25.5 1.9 33.7 0 13.7-3.3 26.2-12.3 32.1-23.4 1.7-3.2 3.1-6.4 3.1-6.9 0-1-10-4.5-16.6-5.7-2.6-.5-3.1-.2-4.9 3.5-4.9 10.6-17.6 16.6-33.3 15.8-19.3-.9-32.5-12.7-36.8-32.6-.7-3.7-1.4-7.9-1.4-9.5V114h14.3c7.9 0 29.3-.3 47.5-.7l33.2-.6v-9.6c-.1-22.8-8.6-41.2-23.8-51.5-9.4-6.3-17.4-8.8-30.2-9.2-5.8-.2-12.3.1-14.5.6zm23.8 19c11.4 3.5 20.7 14.2 23.6 27.1.6 2.4 1.1 5 1.1 5.6 0 1-8.1 1.3-37.4 1.3h-37.4l1-4.3c5.1-23.3 27.1-36.5 49.1-29.7zM1013 43.4c-21.6 5.5-36.8 21.8-42.7 45.5-2.7 10.5-2.4 33.4.5 43.6 6.4 22.3 21.2 37.9 40.9 43 7.4 1.9 24.2 1.9 31.6 0 15.4-4 28.3-14.7 35.5-29.5 6.3-12.8 7.6-19 7.6-36 0-16.7-1.5-24.4-6.9-35.6-6.8-14.1-18.6-24.8-32.5-29.5-8.3-2.8-25.8-3.5-34-1.5zm28.3 19.1c6.7 2.4 15 10.2 18.7 17.8 4.6 9.6 6.4 17.8 6.4 29.7 0 22.1-8.4 38.9-22.9 46-4.4 2.2-6.3 2.5-16 2.5-9.6 0-11.6-.3-15.9-2.4-14.5-7.2-22.9-24-22.9-46.1-.1-20.5 7.3-37.3 19.8-45 8.1-5 22.3-6.1 32.8-2.5zM1119.9 43.4c-12.1 4.3-17.6 17.4-11.9 28.5 7.4 14.6 29.8 14.4 36.9-.3 7.8-16.1-8.3-34.2-25-28.2zm13.7 4.5c5.5 2.5 8.7 7.1 9.2 13.6.5 6.2-1.3 10.2-6.3 14.1-12 9.2-29.5-1.7-26.4-16.5 1-4.8 3.9-8.3 8.9-10.9 5.3-2.7 9.2-2.8 14.6-.3z"/><path d="M1120.2 62.2c.2 7.5.6 9.3 1.8 9.3 1 0 1.6-1.2 1.8-3.3.4-4.4 3.3-4.3 5.5.3.9 1.9 2.3 3.5 3.2 3.5 1.9 0 1.9-.4 0-4.1-1.4-2.7-1.4-3.2 0-5.1 3.8-5.5.6-9.8-7.4-9.8h-5.2l.3 9.2zm9.8-4.7c1.7 2-.3 4.5-3.6 4.5-2 0-2.4-.5-2.4-3s.4-3 2.4-3c1.3 0 2.9.7 3.6 1.5zM665 90.4c0 50.6.5 56.1 6.1 66.6 8 15.1 24.6 22.7 43.6 20 12.1-1.6 23.2-8.8 29-18.7 1.4-2.4 2.9-4.3 3.4-4.3s.9 4.9.9 11v11h20V45h-19.8l-.4 42.7c-.4 41.7-.4 42.9-2.6 48.5-9.3 23.4-41.1 29.3-54.3 10.2-5.5-8.1-5.9-11.6-5.9-58.6V45h-20v45.4zM0 110v64h57V46H0v64zM76 145v29h58v-58H76v29zM452.5 214.4c-2.1 2.1-2.5 3.5-2.5 8.1 0 5.4 0 5.5-3 5.5-2.5 0-3 .4-3 2.5s.5 2.5 3 2.5h3v37h6v-36.9l3.3-.3c2.4-.2 3.2-.8 3.2-2.3 0-1.5-.8-2.1-3.3-2.3l-3.3-.3.3-5.2c.3-5.1.4-5.2 3.6-5.5 2.8-.3 3.3-.7 3-2.5-.5-3.4-7-3.6-10.3-.3zM224 223.1v10.1l-3-2.6c-7.9-6.6-20-3.4-25.2 6.7-1.7 3.2-2.2 5.9-2.2 11.7 0 8.5 2.2 14 7.4 18.3 5.5 4.7 15.6 4.5 20.8-.3 2.1-1.9 2.1-1.9 2.4.3.2 1.6 1.1 2.3 3.1 2.5l2.7.3V213h-6v10.1zm-7 10.2c4.9 2.5 7 7.2 7 15.7 0 6.4-.4 8.3-2.3 11.1-4.1 6.1-10.5 7.6-16.5 3.9-4.2-2.6-6.2-7.4-6.2-15 0-12.8 8.7-20.4 18-15.7zM470 241.5V270h6v-57h-6v28.5zM326.4 215.5c-.9 2.3.3 4.5 2.5 4.5 2 0 3.7-3.2 2.6-5-.9-1.5-4.5-1.2-5.1.5zM252.4 228.1c-4.1 1.2-10 7.7-11.3 12.6-2.3 8.2-1 17.6 3.2 23.7 3.9 5.6 14 8.2 21 5.2 3.1-1.3 9.7-7.8 9.7-9.6 0-.4.3-1.5.6-2.4.5-1.2 0-1.6-1.8-1.6-1.7 0-3.2 1.1-4.9 3.7-3.1 4.9-6.3 6.5-11.7 6-6.2-.7-10.1-4.8-11.5-12.5l-.6-3.2H276v-4c0-13.3-11-21.6-23.6-17.9zm11.6 5.4c3.2 1.6 6 6.1 6 9.5 0 1.9-.6 2-12 2-13.2 0-13.5-.2-10.5-6.1 3.2-6 10.6-8.5 16.5-5.4zM293.3 228c-4.8 1.5-8.3 6.3-8.3 11.4 0 6.2 3.3 8.9 14.3 11.7 10.1 2.5 12.9 5 10.9 9.4-1.9 4.1-5.6 5.8-11.2 5.3-5.4-.5-8.7-2.7-9.2-6.2-.2-1.6-1.1-2.2-3.5-2.4-3.8-.4-4 .5-1.7 5.4 3.3 6.9 14.2 10.3 22.9 7 6.1-2.4 8.5-5.7 8.5-11.6 0-6.8-3.6-9.8-14.5-12-8.2-1.6-10.5-3.2-10.5-7.4s1.8-5.7 7.5-6.4c5.2-.5 8.6 1.2 11 5.8 1.8 3.5 6.5 4.4 6.5 1.2 0-2.5-3.5-7.8-6.4-9.7-3-2-12-2.8-16.3-1.5zM353 228.5c-4.6 2.1-6.8 4.2-9.1 8.7-5.8 11.3-1.5 26.2 8.7 30.4 6.2 2.6 13.6 1.4 18.2-2.8l2.2-2.1v3.2c0 8.1-5.1 13.1-13.5 13.1-4.3 0-9.5-2.5-9.5-4.5 0-1-1-1.5-3-1.5-3.7 0-3.9 1.8-.4 5.9 5.4 6.4 19.4 6.8 26.3.7 4.6-4.1 5.1-7 5.1-30.1V228h-2.5c-2 0-2.5.5-2.5 2.6v2.5l-3.4-2.6c-4.3-3.3-11.7-4.2-16.6-2zm12.6 5.1c6.7 3.2 9.4 14.5 5.5 23.1-3.1 6.7-10.5 9.2-17.2 5.7-6.3-3.2-8.8-14.9-4.9-23 3.3-6.7 9.8-9 16.6-5.8zM403 228.1c-1.4.5-3.5 2-4.7 3.1l-2.3 2.1v-2.7c0-2.4-.3-2.7-2.7-2.4l-2.8.3v41l2.8.3 2.7.3v-14.6c0-16.2.8-19.3 6-22 5.7-3 12.2-1.2 14 3.8.5 1.6 1 9.7 1 17.8V270h5v-16.8c0-17.9-.5-20-5.1-23.5-3.1-2.3-10.3-3.1-13.9-1.6zM498.8 228c-8.3 2.5-13.1 10.2-13.1 21 0 5 .6 8 2.3 11.4 5.1 10.7 19.1 13.8 28.5 6.4 9-7.1 9.5-27.2.8-35-4.5-4.1-12.2-5.7-18.5-3.8zm14.8 8.3c3.7 4 5 9.9 3.9 17.3-2 13.3-18.1 16.7-24.1 5.2-2.4-4.4-2.4-15.2 0-19.6 4.2-8 14.2-9.5 20.2-2.9zM543 228.6c-6.8 3-10.5 8.6-11.6 17.6-1.7 14.4 7.7 25.6 20.5 24.4 11.1-1 17.3-8.7 17.3-21.4 0-3.8-.7-8.4-1.5-10.3-4-9.7-15.3-14.4-24.7-10.3zm13.7 5.4c4.7 2.8 6.7 7.3 6.7 15 0 11.3-5.5 17.6-14.4 16.7-8.5-.9-13.3-9.7-11.6-21.2 1.6-10.2 11.2-15.5 19.3-10.5zM613.6 228c-1.6.5-4.2 2.1-5.7 3.6-2.4 2.3-2.9 3.6-2.9 7.5 0 6.8 2.8 9.1 14 11.9 9.6 2.4 11.3 3.5 11.3 7.7 0 4-4.4 7.3-9.6 7.3-5.6 0-8.9-1.8-10.6-5.8-1.2-2.5-2-3.2-4.4-3.2-2.7 0-2.9.2-2.2 2.7 2.4 9.6 14.6 14.1 25.2 9.4 4.8-2.2 7.3-6.2 7.3-11.9 0-5.6-3.1-8-13.7-10.8-11.6-3.1-14.6-6.4-10.4-11.5 1.6-2 2.8-2.4 7.6-2.4 5 0 6 .3 8.1 2.8 1.3 1.5 2.4 3.5 2.4 4.3 0 .9 1.1 1.4 3 1.4 2.3 0 3-.5 3-1.9 0-2.8-4.2-8.4-7.5-10-3.7-1.8-11.1-2.3-14.9-1.1zM326 249v21.1l2.8-.3 2.7-.3v-41l-2.7-.3-2.8-.3V249zM579 249v21h6v-13.8c0-17.1 1.1-19.9 8.2-22.2 3.9-1.2 4.8-1.9 4.8-3.8 0-3.3-5.8-3.1-9.9.4l-3.1 2.6v-2.6c0-2.2-.4-2.6-3-2.6h-3v21z"/></svg>