<svg id="Penthouse_Logo" data-name="Penthouse Logo" xmlns="http://www.w3.org/2000/svg" xmlns:xlink="http://www.w3.org/1999/xlink" width="226" height="100.589" viewBox="0 0 226 100.589">
  <defs>
    <clipPath id="clip-path">
      <rect id="Rectangle_1" data-name="Rectangle 1" width="226" height="100.589" fill="none"/>
    </clipPath>
  </defs>
  <g id="Group_1" data-name="Group 1" clip-path="url(#clip-path)">
    <path id="Path_1" data-name="Path 1" d="M216.028,31.329c-5.583-5.9-13.6-11.21-23.829-15.781A160.932,160.932,0,0,0,156.6,4.824,236,236,0,0,0,112.918.883a235.985,235.985,0,0,0-43.683,3.94,160.923,160.923,0,0,0-35.6,10.725C23.408,20.119,15.391,25.429,9.807,31.329c-5.692,6.015-8.578,12.377-8.578,18.91S4.115,63.133,9.807,69.148c5.583,5.9,13.6,11.21,23.829,15.781a160.923,160.923,0,0,0,35.6,10.725,235.985,235.985,0,0,0,43.683,3.94,236,236,0,0,0,43.684-3.94,160.931,160.931,0,0,0,35.6-10.725c10.228-4.571,18.245-9.88,23.829-15.781,5.692-6.015,8.578-12.377,8.578-18.909s-2.886-12.895-8.578-18.91" transform="translate(0.082 0.056)" fill="#fff"/>
    <path id="Path_2" data-name="Path 2" d="M215.327,67.7c-5.4,5.749-13.222,10.95-23.239,15.459a159.084,159.084,0,0,1-35.405,10.735A234.379,234.379,0,0,1,113,97.863a234.4,234.4,0,0,1-43.684-3.969,159.059,159.059,0,0,1-35.4-10.735C23.895,78.65,16.075,73.449,10.674,67.7c-5.269-5.608-7.94-11.464-7.94-17.4s2.672-11.8,7.94-17.407c5.4-5.749,13.221-10.95,23.238-15.459a159.115,159.115,0,0,1,35.4-10.735A234.216,234.216,0,0,1,113,2.728a234.2,234.2,0,0,1,43.683,3.967A159.14,159.14,0,0,1,192.088,17.43c10.017,4.509,17.836,9.71,23.239,15.459,5.268,5.608,7.94,11.464,7.94,17.407s-2.673,11.8-7.94,17.4m1.994-36.674c-5.65-6.012-13.761-11.422-24.108-16.08A161.922,161.922,0,0,0,157.2,4.017,237.136,237.136,0,0,0,113,0,237.18,237.18,0,0,0,68.8,4.017,161.888,161.888,0,0,0,32.788,14.946C22.439,19.6,14.327,25.014,8.68,31.026,2.921,37.155,0,43.638,0,50.3S2.921,63.434,8.68,69.563c5.647,6.012,13.76,11.422,24.108,16.08A161.887,161.887,0,0,0,68.8,96.571a237.18,237.18,0,0,0,44.2,4.016,237.136,237.136,0,0,0,44.2-4.016,161.922,161.922,0,0,0,36.017-10.929c10.348-4.658,18.459-10.067,24.108-16.08C223.08,63.434,226,56.951,226,50.3s-2.92-13.141-8.679-19.269" transform="translate(0 0)" fill="#70215e"/>
    <path id="Path_3" data-name="Path 3" d="M85.467,75.407h.5v1.468a7.345,7.345,0,0,1-4.37,1.447A7.662,7.662,0,0,1,81.6,63a7.352,7.352,0,0,1,4.37,1.447v1.468h-.5A5.275,5.275,0,0,0,81.6,64.024c-3.823,0-5.544,2.979-5.544,6.638S77.779,77.3,81.6,77.3a5.284,5.284,0,0,0,3.866-1.895" transform="translate(4.963 4.022)" fill="#70215e"/>
    <path id="Path_4" data-name="Path 4" d="M92.916,72.859c-1.387.468-3.886.318-3.886,2.532A1.415,1.415,0,0,0,90.3,76.94a1.476,1.476,0,0,0,.5-.037,3.163,3.163,0,0,0,2.122-1.639Zm2.247,4.617V77.8H93.336a2.145,2.145,0,0,1-.419-1.255,4.124,4.124,0,0,1-3.172,1.468A2.542,2.542,0,0,1,87.1,75.576l0-.059c0-1.616,1.071-2.488,2.816-2.765,2.9-.468,3-.639,3-1.427,0-1.169-.147-2.468-1.892-2.468a2.619,2.619,0,0,0-2.52,1.319h-.525V69.093a5.045,5.045,0,0,1,3.214-1.171c1.912,0,3.654,1.192,3.654,3V75.8a2.83,2.83,0,0,0,.316,1.681" transform="translate(5.833 4.336)" fill="#70215e"/>
    <path id="Path_5" data-name="Path 5" d="M102.114,69.434h-.462c-1.071-.573-3-.169-3,2.34V77.8H96.715V68.135h1.933v1.15a4.126,4.126,0,0,1,3.466-1.342Z" transform="translate(6.477 4.337)" fill="#70215e"/>
    <path id="Path_6" data-name="Path 6" d="M105.619,72.966c0,1.959.671,4.043,2.919,4.043,2.122,0,2.982-1.81,2.982-4.043,0-2.255-.86-4.064-2.982-4.064-2.268-.064-2.919,2.128-2.919,4.064m0,3.6v5.8h-1.932V68.135h1.932V69.37a4.291,4.291,0,0,1,3.172-1.447,5.076,5.076,0,0,1,0,10.085,4.291,4.291,0,0,1-3.172-1.447" transform="translate(6.944 4.337)" fill="#70215e"/>
    <path id="Path_7" data-name="Path 7" d="M121.646,72.286c0-1.895-.419-3.532-2.121-3.532-1.931,0-2.772,1.595-2.9,3.532Zm-5.061.7c-.106,1.745.125,4.043,2.52,4.235a3.784,3.784,0,0,0,3.591-1.534h.483v.937a5.014,5.014,0,0,1-4.285,1.362c-2.543-.149-4.264-2-4.264-5.021,0-2.787,1.806-5.043,4.662-5.043,2.794,0,4.287,2.277,4.287,5.064Z" transform="translate(7.677 4.337)" fill="#70215e"/>
    <path id="Path_8" data-name="Path 8" d="M130.207,77.01v.936c-2.038.319-4.369.574-4.369-1.447V69.138h-1.68v-.831h1.68V66.328l1.933-.765v2.744h2.5v.831h-2.5V76.35c0,1.638,2.016.681,2.016.66Z" transform="translate(8.315 4.186)" fill="#70215e"/>
    <path id="Path_9" data-name="Path 9" d="M138.169,75.5c-.232,1.831-2.1,2.511-3.361,2.511a6.333,6.333,0,0,1-3.15-.979v-1.34h.4a3.31,3.31,0,0,0,2.543,1.532c1.407,0,1.932-.829,1.974-1.424.168-2.639-4.894-1.682-4.894-5.321,0-1.552,1.449-2.552,3.256-2.552a3.854,3.854,0,0,1,2.667,1.064v1.192h-.42a2.49,2.49,0,0,0-2.247-1.426,1.537,1.537,0,0,0-1.6,1.477v.034c0,2.511,5.292,1.617,4.83,5.234" transform="translate(8.818 4.337)" fill="#70215e"/>
    <path id="Path_10" data-name="Path 10" d="M117.051,18.807l-9.979-3.9-10.412,3.9H90.984v8.6h12.2a7.842,7.842,0,0,1-.067-1.152,3.913,3.913,0,0,1,7.825,0v0c0,.383.028.778.007,1.152h12.619v-8.6Z" transform="translate(6.094 0.952)" fill="#70215e"/>
    <path id="Path_11" data-name="Path 11" d="M117.159,13.432l-10.105-3.9-10.449,3.9H90.984v3.013H96.64l10.391-3.456,10.1,3.456h6.439V13.432Z" transform="translate(6.094 0.609)" fill="#70215e"/>
    <path id="Path_12" data-name="Path 12" d="M37.841,46.434c4.907-.071,8.925-1.135,8.925-5.815,0-3.652-3.129-5.425-5.974-5.425h-5.37V58.559H32.116V33.74h8.89c6.366,0,8.962,3.085,8.962,6.879,0,7.8-12.126,6.879-12.126,6.879Z" transform="translate(2.151 2.154)" fill="#70215e"/>
    <path id="Path_13" data-name="Path 13" d="M62.081,48.873c0-3.155-.713-5.885-3.592-5.885-3.272,0-4.694,2.66-4.907,5.885ZM53.51,50.044c-.177,2.907.213,6.736,4.268,7.055a6.434,6.434,0,0,0,6.081-2.552h.818v1.56s-2.134,2.623-7.255,2.269c-4.3-.249-7.218-3.333-7.218-8.367,0-4.645,3.058-8.4,7.895-8.4,4.728,0,7.254,3.794,7.254,8.438Z" transform="translate(3.362 2.656)" fill="#70215e"/>
    <path id="Path_14" data-name="Path 14" d="M68.447,58.057v-16.1h3.236v1.914a6.963,6.963,0,0,1,4.907-2.269c3.272,0,6.366,1.809,6.366,6.028V58.057H79.648V47.917c0-2.659-.924-4.61-3.591-4.61-3.022,0-4.374,2.093-4.374,4.61V58.057Z" transform="translate(4.584 2.656)" fill="#70215e"/>
    <path id="Path_15" data-name="Path 15" d="M95.083,56.749v1.56c-3.45.532-7.4.957-7.4-2.411V43.631H84.841V42.246h2.846v-3.3l3.271-1.277v4.573h4.233v1.384H90.958V55.65c0,2.73,3.414,1.134,3.414,1.1Z" transform="translate(5.682 2.405)" fill="#70215e"/>
    <path id="Path_16" data-name="Path 16" d="M98.642,58.537V34.1h3.2V44.355a6.965,6.965,0,0,1,4.907-2.269c3.272,0,6.33,1.809,6.33,6.028V58.537h-3.271V48.4c0-2.659-.925-4.61-3.59-4.61-3.024,0-4.376,2.093-4.376,4.61V58.537Z" transform="translate(6.606 2.177)" fill="#70215e"/>
    <path id="Path_17" data-name="Path 17" d="M129.756,50.009c0-3.723-1.316-6.736-5.016-6.736s-5.048,3.013-5.048,6.736c0,3.759,1.351,6.772,5.048,6.772s5.016-3.014,5.016-6.772m3.307,0a8.368,8.368,0,1,1,0-.071v.071" transform="translate(7.795 2.656)" fill="#70215e"/>
    <path id="Path_18" data-name="Path 18" d="M150.2,41.939v16.1h-3.236V56.122a6.968,6.968,0,0,1-4.907,2.268c-3.272,0-6.366-1.809-6.366-6.028V41.939H139V52.078c0,2.66.924,4.611,3.591,4.611,3.024,0,4.374-2.092,4.374-4.611V41.939Z" transform="translate(9.088 2.678)" fill="#70215e"/>
    <path id="Path_19" data-name="Path 19" d="M163.939,54.389c-.392,3.049-3.557,4.184-5.689,4.184a10.81,10.81,0,0,1-5.335-1.631V54.708h.675c1,1.205,2.277,2.553,4.3,2.553,2.383,0,3.272-1.382,3.343-2.377.285-4.4-8.285-2.8-8.285-8.863,0-2.588,2.453-4.255,5.512-4.255a6.549,6.549,0,0,1,4.514,1.772v1.986h-.708a4.224,4.224,0,0,0-3.806-2.376,2.584,2.584,0,0,0-2.7,2.457v.06c0,4.184,8.963,2.695,8.179,8.722" transform="translate(10.241 2.667)" fill="#70215e"/>
    <path id="Path_20" data-name="Path 20" d="M177.751,48.873c0-3.155-.712-5.885-3.592-5.885-3.272,0-4.694,2.66-4.907,5.885Zm-8.571,1.171c-.177,2.907.213,6.736,4.268,7.055a6.434,6.434,0,0,0,6.081-2.552h.818v1.56s-2.134,2.623-7.255,2.269c-4.3-.249-7.218-3.333-7.218-8.367,0-4.645,3.058-8.4,7.895-8.4,4.728,0,7.254,3.794,7.254,8.438Z" transform="translate(11.109 2.656)" fill="#70215e"/>
  </g>
</svg>
