<svg width="268" height="64" viewBox="0 0 268 64" fill="none" xmlns="http://www.w3.org/2000/svg"><path d="M109.1 26.4C107.9 25.2 96 12.3 94 10.2 95.6 8.5 103.4 0 114.2 0c10 0 16 8.4 16.4 12-2.9-3.2-13.4 3.1-21.5 14.4z" fill="#fff"/><path d="M20.5 23.1H0v24.5h7.5v-6.2h14.9c5.3 0 6.9-4.2 6.9-7.9v-2.1c0-4.7-1.7-8.3-8.8-8.3zm-2 6c2.3 0 3.1 1 3.1 2.7v.9c0 1.5-.7 2.6-2.4 2.6H7.5v-6.2h11zm38.2-6.3h-12c-6.8 0-10.8 1.7-10.8 8.9V39c0 7.2 4 8.9 10.8 8.9h12.1c6.8 0 10.8-1.7 10.8-8.9v-7.3c-.1-7.2-4.1-8.9-10.9-8.9zM41.6 34c0-3 .7-4.9 4.7-4.9h8.8c4 0 4.7 1.9 4.7 4.9v2.6c0 3.6-.7 4.9-4.3 4.9h-9.6c-3.6 0-4.3-1.4-4.3-4.9V34zm39 7.3V23.1h-7.5v24.5h24.4v-6.3H80.6zm36.6-18.2l-8.2 10-8.3-10h-9.1l13.6 16v8.5h7.5v-8.5l13.6-16h-9.1zm37.7 5.9v-5.9h-25.6v24.5h7.5v-8.3h17.3v-5.7h-17.3V29h18.1zm12.4 12.3V23.1h-7.5v24.5h24.4v-6.3h-16.9zm42.5-18.5h-12.1c-6.8 0-10.8 1.7-10.8 8.9V39c0 7.2 4 8.9 10.8 8.9h12.1c6.8 0 10.8-1.7 10.8-8.9v-7.3c0-7.2-4.1-8.9-10.8-8.9zM194.6 34c0-3 .7-4.9 4.7-4.9h8.8c4 0 4.7 1.9 4.7 4.9v2.6c0 3.6-.7 4.9-4.3 4.9h-9.6c-3.6 0-4.3-1.4-4.3-4.9V34zm60.9-2.1v-1.6c0-4.4-1.6-7.3-7.3-7.3h-22.7v24.6h7.5v-6.4h11.8c2.3 0 3.1.8 3.1 3.4v3h7.5v-4.2c0-4-1.9-5-4.1-5.4v-.1c3.4-.7 4.2-2.7 4.2-6zM233 29.2h11.7c2.4 0 3.5.4 3.5 2.6v.8c0 1.8-.7 2.6-2.8 2.6H233v-6zm-190.5 32v.2c0 .7 0 1.4-.6 1.9s-1.3.5-2.1.5c-1.8 0-3.1-.1-3.1-2.5v-1.7c0-2.2 1.2-2.5 3.1-2.5 1.8 0 2.6.2 2.7 2.2v.3h-1.8v-.3c-.1-.7-.5-.7-1.1-.7-1 0-1.1.3-1.1 1.2v1c0 1 0 1.4 1.1 1.4.7 0 1.1-.1 1.1-.8v-.2h1.8zm8.1 1c-.9 0-1.2-.1-1.2-1.1v-1.5c0-1 .3-1.1 1.2-1.1.9 0 1.2.1 1.2 1.1v1.5c0 1-.3 1.1-1.2 1.1zm0 1.6c1.8 0 3-.4 3-2.4v-1.9c0-2-1.3-2.4-3-2.4-1.8 0-3 .4-3 2.4v1.9c-.1 2 1.2 2.4 3 2.4zm12.3-6.7h1.8l-1.9 6.6h-2.7l-1.9-6.6H60l1.4 5.1h.1l1.4-5.1zm8.5 2.7h2.8V61h-2.8v1.3h3v1.4h-4.8v-6.6h4.7v1.5h-3v1.2h.1zm10.3.6v-1.8h1.4c.6 0 .7.2.7.8 0 .7 0 1-.7 1h-1.4zM80 63.7h1.8V62h1.4c.5 0 .7.3.7.8v.9h1.8v-1.3c0-.7-.5-1.1-1.2-1.2v-.1c1.2-.3 1.2-.9 1.2-2 0-1.6-.7-2-2.3-2H80v6.6zm12.7 0h-1.8v-6.6h1.8v6.6zm7.3 0h-1.8v-6.6h3l1.9 5h.1l-.1-5h1.8v6.6h-3l-1.9-5h-.1l.1 5zm14.4-4.5c0-.7-.6-.7-1.1-.7-1.3 0-1.3.4-1.3 1.4V61c0 1.2.4 1.3 1.3 1.3s1.1-.2 1.1-1.1h-1.2V60h3v1.1c0 2.2-.6 2.6-2.9 2.6-2.1 0-3.1-.4-3.1-2.5v-1.6c0-2.2 1.2-2.5 3.1-2.5 1.7 0 2.9 0 2.9 2.1h-1.8zm17.6 4.5h-1.8v-5h-1.7v-1.5h5.2v1.5h-1.8v5h.1zm12.6 0h-1.8v-2.6h-2.3v2.6h-1.8v-6.6h1.8v2.5h2.3v-2.5h1.8v6.6zm7.3-3.9h2.8V61h-2.8v1.3h3v1.4h-4.8v-6.6h4.7v1.5h-3v1.2h.1zm23.8-2.7h1.8l-1.5 6.6h-2.6l-.9-4.1h-.1l-1 4.1h-2.5l-1.4-6.6h1.8l.9 5.1h.1l1.2-5.1h1.8l1.2 5.1h.1l1.1-5.1zm9.4 5.1c-.9 0-1.2-.1-1.2-1.1v-1.5c0-1 .3-1.1 1.2-1.1.9 0 1.2.1 1.2 1.1v1.5c.1 1-.3 1.1-1.2 1.1zm0 1.6c1.8 0 3-.4 3-2.4v-1.9c0-2-1.3-2.4-3-2.4-1.8 0-3 .4-3 2.4v1.9c0 2 1.3 2.4 3 2.4zm10.1-3.4v-1.8h1.4c.6 0 .7.2.7.8 0 .7 0 1-.7 1h-1.4zm-1.8 3.3h1.8V62h1.4c.5 0 .7.3.7.8v.9h1.8v-1.3c0-.7-.5-1.1-1.2-1.2v-.1c1.2-.3 1.2-.9 1.2-2 0-1.6-.7-2-2.3-2h-3.4v6.6zm12.8-1.5h2.7v1.5h-4.5v-6.6h1.8v5.1zm9.5-3.5h1.5c.6 0 .9.2.9 1v1.4c0 .7-.2 1.1-.9 1.1h-1.5v-3.5zm-1.8 5h3.6c1.8 0 2.4-.8 2.4-2.6v-1.4c0-1.9-.8-2.6-2.6-2.6H214l-.1 6.6z" fill="#00684E"/><path d="M109.1 26.4C107.9 25.2 96 12.3 94 10.2 95.6 8.5 103.4 0 114.2 0c10 0 16 8.4 16.4 12-2.9-3.2-13.4 3.1-21.5 14.4zm2.7-17.9c.9-.6 1.2-1.6.8-2.2-.4-.6-1.5-.5-2.3.1-.9.6-1.2 1.6-.8 2.2.4.5 1.4.5 2.3-.1z" fill="#DC2F34"/><path d="M130.6 12.1c-1.3-1.5-4.1-1.1-7.4.9 1.5 3.9-.8 5.9-3.2 6.1 1 .6 2 1.2 3.3 1.2 4.7 0 8.1-3.7 7.3-8.2z" fill="#80B4A6"/><path d="M261.3 23.1v.8h-1.6V28h-1v-4.1h-1.5v-.8h4.1zm5.8 4.9l-.2-2.9v-1.4h-.1c-.1.4-.3 1-.4 1.5l-.9 2.7h-1l-.9-2.8c-.1-.4-.2-1-.3-1.4h-.1v1.4L263 28h-.9l.4-4.9h1.5l.8 2.4c.1.4.2.7.3 1.2.1-.5.2-.9.3-1.2l.8-2.4h1.4l.4 4.9h-.9z" fill="#000"/></svg>