<svg id="Logo_Positive" data-name="Logo Positive" xmlns="http://www.w3.org/2000/svg" width="140.635" height="48" viewBox="0 0 140.635 48">
  <defs>
    <style>
      .cls-1 {
        fill: #f60;
      }

      .cls-2 {
        fill: #1c1c1c;
      }
    </style>
  </defs>
  <title>logo-positive</title>
  <path id="Right-Bar" class="cls-1" d="M125.15642,37.43454h10.45666V47.87918H125.15642V37.43454Z"/>
  <path id="Left-Bar" class="cls-1" d="M0.01895,37.43454H39.15447V47.87918H0.01895V37.43454Z"/>
  <g id="Name">
    <g id="FLOORS">
      <path id="Fill-14" class="cls-2" d="M47.19472,39.24282v2.57941h4.1482v1.82939h-4.1482v4.26032H45.143v-10.497h6.92314v1.82793H47.19472"/>
      <path id="Fill-15" class="cls-2" d="M58.27662,47.91193v-10.497h2.05169V46.084h4.7676v1.82793H58.27662"/>
      <path id="Fill-17" class="cls-2" d="M75.63164,39.71445a1.7064,1.7064,0,0,0-1.31351-.5597,1.73927,1.73927,0,0,0-1.32881.5597c-0.39861.44324-.50245,0.92943-0.50245,2.94878,0,2.01971.10384,2.5059,0.50245,2.94914a1.73927,1.73927,0,0,0,1.32881.5597,1.7064,1.7064,0,0,0,1.31351-.5597c0.39861-.44324.51629-0.92943,0.51629-2.94914,0-2.01935-.11769-2.50553-0.51629-2.94878h0ZM77.15174,46.85a4.08585,4.08585,0,0,1-5.68323,0c-1.06246-1.0619-1.03332-2.37307-1.03332-4.18681,0-1.81337-.02915-3.126,1.03332-4.18681a4.08585,4.08585,0,0,1,5.68323,0C78.21456,39.53722,78.2,40.84986,78.2,42.66323c0,1.81374.01457,3.12491-1.04825,4.18681h0Z"/>
      <path id="Fill-18" class="cls-2" d="M89.54641,39.71445a1.70367,1.70367,0,0,0-1.31278-.5597,1.74065,1.74065,0,0,0-1.32917.5597c-0.39824.44324-.50208,0.92943-0.50208,2.94878,0,2.01971.10384,2.5059,0.50208,2.94914a1.74065,1.74065,0,0,0,1.32917.5597,1.70367,1.70367,0,0,0,1.31278-.5597c0.399-.44324.517-0.92943,0.517-2.94914,0-2.01935-.11805-2.50553-0.517-2.94878h0ZM91.0676,46.85a4.0863,4.0863,0,0,1-5.68359,0c-1.06173-1.0619-1.03332-2.37307-1.03332-4.18681,0-1.81337-.02842-3.126,1.03332-4.18681a4.0863,4.0863,0,0,1,5.68359,0c1.06246,1.0608,1.04716,2.37343,1.04716,4.18681,0,1.81374.0153,3.12491-1.04716,4.18681h0Z"/>
      <path id="Fill-19" class="cls-2" d="M102.621,39.24282H100.6877V42.014H102.621a1.38927,1.38927,0,1,0,0-2.77119h0Zm1.59406,8.66911-2.05132-4.18681h-1.476v4.18681H98.63528v-10.497h4.118a3.17582,3.17582,0,0,1,3.41038,3.21444,2.82781,2.82781,0,0,1-1.9187,2.757l2.34646,4.52561H104.215Z"/>
      <path id="Fill-20" class="cls-2" d="M115.60554,48a4.93821,4.93821,0,0,1-3.83777-1.3865l1.32881-1.32573a3.441,3.441,0,0,0,2.53884.88431c1.21039,0,1.85931-.45744,1.85931-1.297a1.165,1.165,0,0,0-.32464-0.88431A1.56219,1.56219,0,0,0,116.241,43.621l-1.27015-.17722a3.57288,3.57288,0,0,1-2.03675-.86829,2.7771,2.7771,0,0,1-.75312-2.06484c0-1.87269,1.38784-3.18423,3.66069-3.18423a4.50654,4.50654,0,0,1,3.39544,1.22384l-1.29893,1.28243a2.92362,2.92362,0,0,0-2.1548-.72273,1.39172,1.39172,0,0,0-1.62394,1.32719,1.01108,1.01108,0,0,0,.30971.75184,1.80736,1.80736,0,0,0,.97428.41231l1.23991,0.17759a3.4841,3.4841,0,0,1,2.008.8108,2.9395,2.9395,0,0,1,.81179,2.22605C119.50307,46.85,117.80443,48,115.60554,48"/>
    </g>
    <g id="PROJECT">
      <path id="Fill-1" class="cls-2" d="M4.32673,14.57431H6.40539c3.52041,0,3.563-2.07612,3.563-5.08422,0-2.83888,0-5.16864-3.39289-5.16864H4.32673V14.57431h0ZM0,0.254H6.49028a7.03365,7.03365,0,0,1,5.59943,2.118C13.5741,3.94044,14.0412,5.84661,14.0412,9.44825c0,2.62635-.21278,4.40552-1.23043,6.05768C11.623,17.4554,9.71411,18.641,6.53291,18.641H4.32673V30.41977H0V0.254H0Z"/>
      <path id="Fill-4" class="cls-2" d="M26.25989,13.7264h2.46086c3.011,0,3.47815-1.694,3.47815-4.70211,0-3.051-.50937-4.70284-3.6902-4.70284H26.25989V13.7264h0ZM21.93389,0.254h6.95629c5.13305,0,7.63582,3.00846,7.63582,8.85507,0,3.4739-.97648,6.01583-3.73319,7.54062l4.66595,13.77007H32.87734L28.84755,17.5402H26.25989V30.41977h-4.326V0.254h0Z"/>
      <path id="Fill-5" class="cls-2" d="M48.74542,23.302a2.929,2.929,0,1,0,5.853,0V7.37213a2.929,2.929,0,1,0-5.853,0V23.302h0ZM44.41869,7.37213a7.25438,7.25438,0,1,1,14.50685,0V23.302a7.25438,7.25438,0,1,1-14.50685,0V7.37213h0Z"/>
      <path id="Fill-6" class="cls-2" d="M77.42282,23.302a7.09765,7.09765,0,0,1-7.3804,7.37177,7.47492,7.47492,0,0,1-5.641-2.71224L67.794,25.25113a3.56989,3.56989,0,0,0,2.376,1.10011c1.06028,0,2.92688-.635,2.92688-3.6424V0.254h4.326V23.302"/>
      <path id="Fill-7" class="cls-2" d="M86.16446,0.254H99.0594V4.32146H90.49046V13.1758h7.46529v4.06745H90.49046v8.85544H99.0594v4.32109H86.16446V0.254"/>
      <path id="Fill-8" class="cls-2" d="M120.27186,23.68194a6.97557,6.97557,0,0,1-6.87249,6.99184c-3.30835,0-7.12608-1.61031-7.12608-7.11776V6.94854A6.74671,6.74671,0,0,1,113.31448,0a6.864,6.864,0,0,1,6.95738,7.20291V8.89656h-4.32673V7.45583c0-1.694-1.01838-3.13437-2.67219-3.13437-2.16428,0-2.67365,1.48258-2.67365,3.51612V23.25944c0,1.73732.6788,3.0918,2.62993,3.0918,1.18853,0,2.71591-.67615,2.71591-3.04922V21.81835h4.32673v1.86359"/>
      <path id="Fill-9" class="cls-2" d="M131.30347,4.32146h-5.00479V0.254H140.635V4.32146h-5.0048V30.41977h-4.32673V4.32146"/>
    </g>
  </g>
</svg>
