<svg id="Layer_1" data-name="Layer 1" xmlns="http://www.w3.org/2000/svg" viewBox="0 0 552.76 85.82"><defs><style>.cls-1{fill:#5b6670;}</style></defs><polygon class="cls-1" points="169.55 85.6 169.55 71 177.35 71 176.64 72.99 171.88 72.99 171.88 77.13 176.62 77.13 176.62 79.13 171.88 79.13 171.88 83.61 177.38 83.61 177.38 85.6 169.55 85.6"/><path class="cls-1" d="M190.75,91.71a6.55,6.55,0,0,1-3.63-.93l.77-1.71a5,5,0,0,0,2.75.86c1.16,0,1.93-.46,1.93-1.26,0-2.11-4.81-1.31-4.81-4.94,0-1.71,1.33-3,3.79-3a7.49,7.49,0,0,1,2.93.55v1.95a6.79,6.79,0,0,0-2.84-.66c-.95,0-1.64.3-1.64,1,0,1.88,4.9,1.33,4.9,4.87,0,2.31-2,3.22-4.15,3.22" transform="translate(-4.33 -5.89)"/><path class="cls-1" d="M204.28,91.71a2.18,2.18,0,0,1-2.46-2.37V82.79H200V81h1.82V78.63l2.3-.71V81h3.26l-.73,1.79h-2.53v5.73c0,.82.33,1.21,1,1.21a3.33,3.33,0,0,0,1.78-.64l.64,1.51a5.9,5.9,0,0,1-3.28,1.11" transform="translate(-4.33 -5.89)"/><path class="cls-1" d="M219.53,91.49l-.44-1a4.38,4.38,0,0,1-3.1,1.2,3.21,3.21,0,0,1-3.35-3.31c0-2.15,1.62-3.34,4.34-3.45l2-.07v-.31a1.85,1.85,0,0,0-2.1-2,4.78,4.78,0,0,0-2.73.85l-.77-1.49a6.53,6.53,0,0,1,4-1.2c2.4,0,4,1,4,3.73v3.83a11.55,11.55,0,0,0,.2,3.2Zm-.62-4.9-1.71.06c-1.57,0-2.26.6-2.26,1.58a1.6,1.6,0,0,0,1.82,1.62,3,3,0,0,0,2.15-.85Z" transform="translate(-4.33 -5.89)"/><path class="cls-1" d="M231.1,91.71a6.65,6.65,0,0,1-3.25-.72V75.79h2.3v5.32a6.41,6.41,0,0,1,2.13-.38,4.74,4.74,0,0,1,4.88,5.13c0,3.68-2.75,5.85-6.06,5.85m.76-9a3.79,3.79,0,0,0-1.71.38v6.45a4,4,0,0,0,1.42.2A3.47,3.47,0,0,0,234.85,86a3,3,0,0,0-3-3.28" transform="translate(-4.33 -5.89)"/><path class="cls-1" d="M245.47,91.71a2,2,0,0,1-2.19-2.2V75.79h2.3V88.52c0,.84.18,1.1.75,1.1a2.52,2.52,0,0,0,.69-.08l.29,1.7a3.65,3.65,0,0,1-1.84.47" transform="translate(-4.33 -5.89)"/><path class="cls-1" d="M255.82,77.74a1.47,1.47,0,1,1-1.46-1.44,1.43,1.43,0,0,1,1.46,1.44M253.21,81h2.31V91.49h-2.31Z" transform="translate(-4.33 -5.89)"/><path class="cls-1" d="M265.18,91.71a6.55,6.55,0,0,1-3.63-.93l.77-1.71a5,5,0,0,0,2.75.86c1.15,0,1.93-.46,1.93-1.26,0-2.11-4.81-1.31-4.81-4.94,0-1.71,1.33-3,3.79-3a7.43,7.43,0,0,1,2.92.55v1.95a6.74,6.74,0,0,0-2.83-.66c-.95,0-1.64.3-1.64,1,0,1.88,4.89,1.33,4.89,4.87,0,2.31-1.94,3.22-4.14,3.22" transform="translate(-4.33 -5.89)"/><path class="cls-1" d="M282.14,91.49V85.24c0-1.22-.22-2.44-1.69-2.44a4.6,4.6,0,0,0-2.77,1.3v7.39h-2.3V75.79h2.3v6.39a5.61,5.61,0,0,1,3.55-1.44c1.55,0,3.21.84,3.21,3.85v6.9Z" transform="translate(-4.33 -5.89)"/><path class="cls-1" d="M292.9,86.79a3,3,0,0,0,3.14,3,5.38,5.38,0,0,0,2.64-.73l.6,1.51a6.5,6.5,0,0,1-3.66,1.13c-3.53,0-5.1-2.69-5.1-5.54s1.75-5.43,4.59-5.43,4.52,2.15,4.52,5.4v.65Zm2.17-4.26a2.35,2.35,0,0,0-2.2,2.55h4.37a2.34,2.34,0,0,0-2.17-2.55" transform="translate(-4.33 -5.89)"/><path class="cls-1" d="M310.85,91.71c-3.08,0-5.61-1.8-5.61-5.36a5.47,5.47,0,0,1,5.68-5.61,8,8,0,0,1,1.46.13V75.79h2.31V90.88a8.2,8.2,0,0,1-3.84.83m1.53-8.89a4.31,4.31,0,0,0-1.37-.18,3.57,3.57,0,0,0,.08,7.14,4.26,4.26,0,0,0,1.29-.2Z" transform="translate(-4.33 -5.89)"/><polygon class="cls-1" points="331.28 85.6 331.28 73.32 327.8 74.78 327.16 73.08 331.79 70.88 333.54 70.88 333.54 85.6 331.28 85.6"/><path class="cls-1" d="M350.89,91.71c-3.26,0-5.12-1.56-5.12-4.1A4,4,0,0,1,348.34,84v0a3.63,3.63,0,0,1-1.95-3.28c0-2.22,1.8-3.94,4.9-3.94s4.5,2,4.5,3.81a3.91,3.91,0,0,1-2.15,3.34v0a3.63,3.63,0,0,1,2.64,3.57c0,2.37-1.95,4.21-5.39,4.21m-.62-6.85a3,3,0,0,0-2.08,2.57c0,1.66,1.3,2.46,2.88,2.46s2.75-.84,2.75-2.24c0-1.73-1.82-2.48-3.55-2.79m1.42-1.66a3,3,0,0,0,1.68-2.44,2.19,2.19,0,0,0-2.3-2.2,2.11,2.11,0,0,0-2.31,2c0,1.73,1.51,2.3,2.93,2.66" transform="translate(-4.33 -5.89)"/><path class="cls-1" d="M365.32,91.71a9,9,0,0,1-3.19-.62l.62-1.89a5.84,5.84,0,0,0,2.6.62c2.5,0,4-1.73,4.23-4.79h0a5.32,5.32,0,0,1-3.43,1.22,4.21,4.21,0,0,1-4.39-4.52,4.9,4.9,0,0,1,5-5c3,0,5.28,2.09,5.28,6.83,0,5.06-2.48,8.14-6.7,8.14m1.31-13.1A2.54,2.54,0,0,0,364,81.42a2.58,2.58,0,0,0,2.7,2.9A3.83,3.83,0,0,0,369.58,83c0-2.78-1.18-4.37-2.95-4.37" transform="translate(-4.33 -5.89)"/><path class="cls-1" d="M387.05,79l-5.63-.08v3.69c4.68-.26,6.07,2.07,6.07,4.28,0,2.58-1.86,4.86-6,4.86a7.93,7.93,0,0,1-3.48-.73l.67-1.75a5.85,5.85,0,0,0,2.87.62c1.87,0,3.4-.93,3.4-2.73,0-1.6-.95-2.72-3.95-2.72h-2V76.9h8.45Z" transform="translate(-4.33 -5.89)"/><path class="cls-1" d="M21.08,47.46H17.55L4.33,14.51H10l7.55,19.63c.75,1.89,1.39,3.78,2,5.57h.1a55.87,55.87,0,0,1,2-5.47L30,14.51h5.37Z" transform="translate(-4.33 -5.89)"/><rect class="cls-1" x="43.58" y="8.63" width="5.22" height="32.75"/><path class="cls-1" d="M83.34,47.76c-10.18,0-16.2-7.16-16.2-16.5,0-9.49,6.86-17,17.3-17a18.5,18.5,0,0,1,8.45,1.83l-.11,5a14.88,14.88,0,0,0-8.29-2.39c-7.51,0-11.68,5.57-11.68,12.22,0,7.06,4.27,12.28,11.33,12.28A16.36,16.36,0,0,0,92,41l1.49,3.88a19.5,19.5,0,0,1-10.19,2.88" transform="translate(-4.33 -5.89)"/><polygon class="cls-1" points="123.64 13.1 114.64 13.1 114.64 41.38 109.37 41.38 109.37 13.1 99.88 13.1 99.88 8.63 125.08 8.63 123.64 13.1"/><path class="cls-1" d="M142.27,19a17.4,17.4,0,0,1,24.3.35A17,17,0,0,1,170.7,31,16.9,16.9,0,0,1,166,43.19a16.42,16.42,0,0,1-11.83,4.57,16.61,16.61,0,0,1-11.38-4,16.78,16.78,0,0,1-5.17-12.57A17.08,17.08,0,0,1,142.27,19m11.88-.25c-6.61,0-11,4.67-11,12.32s4.42,12.28,11,12.28,11-4.67,11-12.28c0-7.35-4.12-12.32-11-12.32" transform="translate(-4.33 -5.89)"/><path class="cls-1" d="M201.9,47.26C196.78,38.81,194.25,34.34,193,34h-3V47.26h-5.22V14.51h8.15c8.2,0,11.33,4.13,11.33,9.15A9.2,9.2,0,0,1,198,32.3v.05c1.35.7,4.83,6.51,9.95,14.91Zm-9-28.22h-3V29.92H193a5.72,5.72,0,0,0,5.86-5.72c0-2.83-1.74-5.16-6-5.16" transform="translate(-4.33 -5.89)"/><rect class="cls-1" x="216.2" y="8.63" width="5.22" height="32.75"/><path class="cls-1" d="M262,47.26l-3.28-8.35H246.63l-3.09,8.35h-5.17l12.68-32.84h3.63l13,32.84Zm-8-21.47a32.53,32.53,0,0,1-1.19-4h-.05a37.18,37.18,0,0,1-1.29,4l-3.24,8.8h8.8Z" transform="translate(-4.33 -5.89)"/><path class="cls-1" d="M315.2,47.76C305,47.76,299,40.6,299,31.26c0-9.49,6.86-17,17.29-17a18.44,18.44,0,0,1,8.45,1.83l-.1,5a14.91,14.91,0,0,0-8.3-2.39c-7.5,0-11.68,5.57-11.68,12.22,0,7.06,4.28,12.28,11.33,12.28A16.37,16.37,0,0,0,323.9,41l1.49,3.88a19.5,19.5,0,0,1-10.19,2.88" transform="translate(-4.33 -5.89)"/><path class="cls-1" d="M360.46,47.26l-3.28-8.35H345.05L342,47.26H336.8l12.68-32.84h3.62l13,32.84Zm-8-21.47a32.53,32.53,0,0,1-1.19-4h0a35.31,35.31,0,0,1-1.3,4l-3.23,8.8h8.8Z" transform="translate(-4.33 -5.89)"/><path class="cls-1" d="M395.84,47.26c-5.12-8.45-7.65-12.92-8.95-13.27h-3V47.26h-5.21V14.51h8.14c8.2,0,11.33,4.13,11.33,9.15A9.21,9.21,0,0,1,392,32.3v.05c1.35.7,4.82,6.51,9.94,14.91Zm-9-28.22h-3V29.92h3.08a5.73,5.73,0,0,0,5.87-5.72c0-2.83-1.74-5.16-6-5.16" transform="translate(-4.33 -5.89)"/><path class="cls-1" d="M421.63,35.63h-1.94V47.26h-5.22V14.51h7.8c7,0,11.54,3.68,11.54,10.39,0,4.92-3.34,10.73-12.18,10.73M421.78,19h-2.09V31.41H422c4.48,0,6.47-2.53,6.47-6.36,0-3.53-2.24-6-6.66-6" transform="translate(-4.33 -5.89)"/><polygon class="cls-1" points="443.24 41.38 443.24 8.63 460.73 8.63 459.14 13.1 448.45 13.1 448.45 22.39 459.09 22.39 459.09 26.87 448.45 26.87 448.45 36.91 460.78 36.91 460.78 41.38 443.24 41.38"/><polygon class="cls-1" points="496.06 13.1 487.06 13.1 487.06 41.38 481.79 41.38 481.79 13.1 472.31 13.1 472.31 8.63 497.5 8.63 496.06 13.1"/><path class="cls-1" d="M522,47.76a17.29,17.29,0,0,1-9.7-2.83L514.45,41a13,13,0,0,0,7.31,2.44c2.68,0,5.81-1.2,5.81-4.18,0-5-7.9-6-11.88-10.44A8.34,8.34,0,0,1,513.46,23c0-4.77,3.67-8.74,10.29-8.74A16.41,16.41,0,0,1,531.5,16l0,4.86A14.62,14.62,0,0,0,524,18.59c-2.83,0-5.17,1.19-5.17,3.78,0,6.45,14.32,6.26,14.32,16.29,0,5.52-4.87,9.1-11.18,9.1" transform="translate(-4.33 -5.89)"/><path class="cls-1" d="M551.7,16.71a5.15,5.15,0,0,1-5.3-5.41,5.17,5.17,0,0,1,5.32-5.41,5.25,5.25,0,0,1,5.37,5.41,5.29,5.29,0,0,1-5.39,5.41m0-9.72a4.09,4.09,0,0,0-4.06,4.31,4.08,4.08,0,1,0,8.14,0A4.1,4.1,0,0,0,551.7,7m1.12,7.27c-.89-1.52-1.37-2.46-1.62-2.46h-.26v2.46H549.8V8.2h1.76c1.33,0,2,.71,2,1.65a1.71,1.71,0,0,1-1.3,1.63h0a11.24,11.24,0,0,1,1.83,2.78Zm-1.51-5.12h-.37v1.72h.33c.61,0,1.14-.27,1.14-.89s-.39-.83-1.1-.83" transform="translate(-4.33 -5.89)"/></svg>